<svg width="64" height="64" viewBox="0 0 64 64" fill="none" xmlns="http://www.w3.org/2000/svg">
<rect x="2.5" y="2.5" width="59" height="59" rx="2.5" fill="#E0C8FF" stroke="#260037" stroke-width="5"/>
<path d="M18.3202 30.4279H24.4806V23.5871C24.4806 23.5871 12.4131 23.5871 12.1599 23.5871C12.1599 26.6888 14.8181 30.4279 18.3202 30.4279Z" fill="#260037"/>
<path d="M52.1599 25.0742V22.8647C52.1599 22.2699 51.6958 21.76 51.1051 21.76H26.8013C26.2105 21.76 25.7464 22.2699 25.7464 22.8647V31.6601C25.7464 32.2549 26.2105 32.7648 26.8013 32.7648C29.0797 32.7648 30.0924 34.082 30.0924 36.249V38.0335H25.0291C24.354 38.0335 23.8477 38.5859 23.8477 39.2232V41.0503C23.8477 41.7301 24.3962 42.24 25.0291 42.24H45.8308C46.5059 42.24 47.0122 41.6876 47.0122 41.0503V39.2232C47.0122 38.5434 46.4637 38.0335 45.8308 38.0335H40.6831V36.2065C40.6831 27.5386 47.0544 25.0742 52.1599 25.0742Z" fill="#260037"/>
</svg>
