<svg width="40" height="21" viewBox="0 0 40 21" fill="none" xmlns="http://www.w3.org/2000/svg">
<path d="M6.16034 8.66788H12.3207V1.82705C12.3207 1.82705 0.253165 1.82705 0 1.82705C0 4.9288 2.65823 8.66788 6.16034 8.66788Z" fill="#260037"/>
<path d="M40 3.31419V1.10473C40 0.509875 39.5359 0 38.9451 0H14.6414C14.0506 0 13.5865 0.509875 13.5865 1.10473V9.90008C13.5865 10.4949 14.0506 11.0048 14.6414 11.0048C16.9198 11.0048 17.9325 12.322 17.9325 14.489V16.2735H12.8692C12.1941 16.2735 11.6878 16.8259 11.6878 17.4632V19.2903C11.6878 19.9701 12.2363 20.48 12.8692 20.48H33.6709C34.346 20.48 34.8523 19.9276 34.8523 19.2903V17.4632C34.8523 16.7834 34.3038 16.2735 33.6709 16.2735H28.5232V14.4465C28.5232 5.77859 34.8945 3.31419 40 3.31419Z" fill="#260037"/>
</svg>
