<svg width="32" height="27" viewBox="0 0 32 27" fill="none" xmlns="http://www.w3.org/2000/svg">
<path fill-rule="evenodd" clip-rule="evenodd" d="M19.2335 1.01372C19.0882 0.891189 18.8323 0.887965 18.6969 1.00888L13.7291 5.82789C13.569 5.98266 13.5524 6.21482 13.7208 6.3696C14.2046 6.81458 14.6702 7.27568 15.1143 7.75774L15.3537 8.01732L0.110203 22.9032C-0.0367342 23.0467 -0.0367342 23.2804 0.110203 23.4239L2.77323 26.0245C2.92016 26.168 3.1579 26.168 3.30484 26.0245L17.9325 11.7416L18.1554 12.2301C18.3816 12.7251 18.578 13.2345 18.7448 13.7521C19.4828 16.0463 19.557 18.3824 19.1691 20.746L19.1658 20.7605C19.1179 20.9943 19.3078 21.2119 19.5521 21.199C19.7007 21.1926 19.8493 21.1797 19.9979 21.1636C22.8309 20.854 25.9084 19.0757 27.982 17.2168C30.1728 15.2515 32.154 12.4204 31.9905 9.39095C31.9757 9.10558 31.9905 8.71864 31.6224 8.68317C29.8839 8.5155 28.2197 7.95605 26.6827 7.15638C25.9397 6.76782 25.2315 6.32123 24.5562 5.83111L24.2045 5.57799L25.172 4.63321C25.319 4.48972 25.319 4.25595 25.172 4.11246L22.509 1.5119C22.3621 1.36841 22.1243 1.36841 21.9757 1.5119L20.858 2.60339L20.5922 2.34382C20.1398 1.89884 19.6891 1.45386 19.2335 1.01372Z" fill="black"/>
</svg>
