<svg width="32" height="33" viewBox="0 0 32 33" fill="none" xmlns="http://www.w3.org/2000/svg">
<path d="M4.66466 28.0712L4.66466 31.6311C4.66466 32.2412 5.15866 32.7352 5.76875 32.7352C6.07573 32.7352 6.35304 32.6095 6.55297 32.4076L9.46894 29.4916C9.47152 29.4891 9.4741 29.4865 9.47668 29.4839L9.47797 29.4826C9.67467 29.2833 9.79656 29.0099 9.79624 28.7077L9.79656 24.5013L11.235 23.0628L23.3278 29.2495C23.026 29.6803 23.0653 30.2768 23.45 30.6615C23.8812 31.0926 24.5802 31.0933 25.012 30.6615C25.3493 30.3242 25.6647 29.9734 25.9662 29.6151L25.97 29.6106C31.0858 23.5191 31.0261 14.5325 25.7901 8.50841L27.0919 7.20665L28.2021 8.31493C28.4723 8.58515 28.8631 8.69543 29.2349 8.60804C29.6073 8.52001 29.9082 8.2456 30.0288 7.8851L31.9422 2.19051C32.0761 1.79292 31.9732 1.3547 31.6765 1.05804C31.3802 0.761703 30.9413 0.658195 30.5441 0.791692L24.8443 2.70579C24.6796 2.76093 24.5341 2.85283 24.4151 2.97182C24.2716 3.11531 24.1688 3.2975 24.1207 3.50097C24.0337 3.87309 24.1449 4.26358 24.4158 4.53445L25.5286 5.64531L24.2326 6.94126C18.2211 1.66297 9.21743 1.57397 3.10558 6.67524C3.05883 6.7091 3.0153 6.74618 2.97499 6.78649L2.97273 6.78939C2.64608 7.06831 2.32492 7.35723 2.01632 7.66583C1.58455 8.0976 1.58455 8.79604 2.01632 9.22781C2.40166 9.61314 2.99853 9.65216 3.42965 9.34937L9.67177 21.5021L8.2349 22.939H4.02813C3.72309 22.939 3.44706 23.0628 3.24746 23.2624L0.322135 26.1877C0.123179 26.3873 0 26.6627 0 26.9671C0 27.5772 0.494005 28.0712 1.10409 28.0712H4.66466ZM24.8066 27.525L12.8763 21.4209L24.2242 10.073C28.4629 15.0604 28.6587 22.3295 24.8066 27.525ZM5.15351 7.87059C10.3712 4.00272 17.6787 4.21683 22.6671 8.50679L11.3128 19.8611L5.15351 7.87059Z" fill="black"/>
</svg>
