<svg width="32" height="28" viewBox="0 0 32 28" fill="none" xmlns="http://www.w3.org/2000/svg">
<path d="M31.9576 9.88835C31.8302 9.47683 31.2072 8.02435 28.5051 6.80611L27.9352 8.97219C28.468 9.22211 29.6888 9.63683 29.5464 10.4845C29.4596 10.9971 28.7531 11.4608 28.3134 11.6445C27.691 11.9043 26.9857 11.9635 26.3185 11.9895C26.3185 11.9895 27.9704 4.05251 27.9352 4.09891C28.0702 3.41891 27.9758 2.97891 27.6347 2.66243C26.0948 1.23779 19.4702 -0.00701028 13.8312 2.97171e-05C8.21547 0.00738972 3.08427 1.18691 1.31243 2.02915C0.815794 2.26467 -0.161486 2.73347 0.0228337 3.78979C0.0417137 3.89635 3.90219 23.3959 3.90219 23.3959C4.25515 24.5424 5.24523 25.417 6.22827 26.0359C7.73931 26.9875 9.50795 27.5002 11.2644 27.7491C13.4369 28.0583 15.7 28.0032 17.8456 27.5325C19.4529 27.1799 21.067 26.5754 22.3707 25.5475C23.076 24.9911 23.7329 24.272 24.0024 23.3959L25.4878 16.0826C19.3697 16.0877 13.8939 14.2355 11.1377 13.2336C9.29707 14.4115 6.91819 13.4064 6.59531 11.3936C6.31083 9.62243 7.94539 8.04675 9.62667 8.12259C8.39243 8.22627 7.55435 9.49827 7.94571 10.6736C8.36715 11.9392 9.97547 12.4128 11.0148 11.5699C14.5857 12.5815 18.226 13.4538 21.9121 13.9194C23.9025 14.1719 25.9992 14.369 27.9809 13.9546C29.5771 13.6215 31.4817 12.7363 31.9208 11.008C32.0123 10.6432 32.0251 10.2592 31.9576 9.88835ZM23.3515 4.63651C21.1214 5.26947 18.835 5.52067 16.5633 5.63555C12.4302 5.84419 8.13131 5.76899 4.08075 4.49603C3.59915 4.34467 3.11787 4.17155 2.64491 3.96323C5.34059 2.46595 10.5112 1.97859 13.9688 1.98307C17.548 1.98723 24.3188 2.96003 25.5016 3.85155C24.8001 4.18531 24.0763 4.43075 23.3515 4.63651Z" fill="black"/>
</svg>
