<svg width="32" height="29" viewBox="0 0 32 29" fill="none" xmlns="http://www.w3.org/2000/svg">
<path fill-rule="evenodd" clip-rule="evenodd" d="M26.201 5.70104C26.4918 4.86168 26.9157 4.1719 27.3811 3.44057C27.4309 3.39902 27.4974 3.43226 27.4808 3.47381C27.0653 4.31318 26.6331 5.07775 26.6414 6.02515C26.6414 6.15812 26.6497 6.2994 26.6747 6.44068C27.2896 6.36589 27.8631 5.83401 28.1124 5.33538C28.5529 4.43784 28.4614 2.16905 28.4448 2.16905C28.4116 2.14412 26.1179 2.69262 25.5694 3.64002C25.1123 4.43784 25.1871 5.56807 25.9267 6.19137C25.96 6.23292 25.9932 6.24954 26.0264 6.27447C26.0763 6.0584 26.1345 5.86725 26.201 5.70104Z" fill="black"/>
<path fill-rule="evenodd" clip-rule="evenodd" d="M12.447 5.60132C12.0896 4.5625 11.5495 3.68989 10.9511 2.77573C10.9012 2.70924 10.8015 2.76741 10.8431 2.8339C11.3583 3.8561 11.8736 4.82012 11.8736 6.00853C11.8736 6.17474 11.8569 6.34095 11.832 6.51548C11.0841 6.44068 10.3694 5.77584 10.0536 5.13592C9.49675 4.03062 9.6214 1.18841 9.64634 1.18841C9.68789 1.15517 12.5384 1.84494 13.2282 3.03335C13.8099 4.014 13.7019 5.45173 12.796 6.2163C12.7462 6.24123 12.7046 6.28278 12.6631 6.30771C12.5966 6.05839 12.5135 5.80908 12.447 5.60132Z" fill="black"/>
<path fill-rule="evenodd" clip-rule="evenodd" d="M8.42468 7.64571C7.78477 7.07228 7.07006 6.68169 6.29718 6.26616C6.21408 6.24123 6.16421 6.31602 6.23901 6.34926C7.00358 6.86452 7.75153 7.3216 8.2003 8.16928C8.26678 8.28562 8.31665 8.39366 8.36651 8.54325C7.83463 8.77595 7.07006 8.60143 6.59636 8.27731C5.78193 7.72051 4.7348 5.70104 4.74311 5.68442C4.77635 5.65118 7.00358 5.00295 7.98422 5.55145C8.77373 6.01684 9.23912 7.04735 8.91501 7.9532C8.9067 7.99476 8.89008 8.028 8.88176 8.06955C8.70724 7.91165 8.56596 7.77868 8.42468 7.64571Z" fill="black"/>
<path fill-rule="evenodd" clip-rule="evenodd" d="M21.1315 16.7707C20.7077 15.8815 20.1343 15.1585 19.4694 14.4022C19.4279 14.3357 19.3531 14.4022 19.378 14.4687C19.9597 15.333 20.5498 16.1308 20.6828 17.2029C20.6911 17.3608 20.6911 17.502 20.6911 17.6682C20.0096 17.6766 19.2949 17.1613 18.9375 16.6211C18.3226 15.682 18.1065 13.1224 18.1231 13.1224C18.173 13.0891 20.7991 13.38 21.5554 14.3773C22.1953 15.2 22.2451 16.4881 21.5221 17.2776C21.4806 17.3109 21.4307 17.3524 21.3975 17.3857C21.306 17.1613 21.2229 16.9535 21.1315 16.7707Z" fill="black"/>
<path fill-rule="evenodd" clip-rule="evenodd" d="M24.8131 18.7237C25.1621 18.2084 25.3367 17.6599 25.5361 17.0782C25.5444 17.0366 25.4779 17.0034 25.4613 17.045C25.1705 17.6516 24.9295 18.2167 24.3311 18.6073C24.2563 18.6738 24.1566 18.6988 24.0568 18.7486C23.766 18.3913 23.7743 17.8261 23.9571 17.4688C24.2563 16.8372 25.7356 15.9064 25.7356 15.923C25.7688 15.923 26.6996 17.4937 26.4254 18.2167C26.201 18.8317 25.4447 19.2722 24.6552 19.106C24.6136 19.0893 24.5721 19.0727 24.5472 19.0727C24.6303 18.9564 24.73 18.8317 24.8131 18.7237Z" fill="black"/>
<path fill-rule="evenodd" clip-rule="evenodd" d="M15.9707 3.00842C15.8959 2.95856 15.8377 2.9918 15.7961 3.02504C15.1812 3.73144 14.5579 4.43784 14.5745 5.45173C14.6077 6.15812 14.8737 6.75648 15.4388 6.93931C15.4803 6.54872 15.4887 6.17474 15.5551 5.80077C15.6549 5.37693 15.7712 4.95309 15.8959 4.54587C15.8959 4.50432 15.9624 4.52094 15.9624 4.55419C15.9457 5.11099 15.8959 5.70104 16.0039 6.23292C16.0704 6.49055 16.1784 6.73155 16.2698 6.96425C16.9596 6.7731 17.5663 6.0584 17.5081 5.34369C17.4167 4.4046 16.7352 3.49043 15.9707 3.00842Z" fill="black"/>
<path fill-rule="evenodd" clip-rule="evenodd" d="M24.0153 3.4655C23.9904 3.40733 23.9072 3.39902 23.8491 3.41564C22.9682 3.68989 22.054 3.98076 21.5554 4.86999C21.2229 5.48497 21.1398 6.12488 21.5471 6.59027C21.7714 6.26616 21.9792 5.94205 22.2285 5.6678C22.5277 5.34369 22.8269 5.05282 23.1593 4.76195C23.1925 4.74533 23.2424 4.76195 23.2092 4.79519C22.9183 5.28552 22.6025 5.76753 22.403 6.29109C22.3199 6.54872 22.2867 6.79804 22.2534 7.04735C22.9515 7.23018 23.8158 6.92269 24.1233 6.26616C24.5472 5.41017 24.4059 4.28825 24.0153 3.4655Z" fill="black"/>
<path fill-rule="evenodd" clip-rule="evenodd" d="M16.7602 9.63193C16.81 9.59869 16.8516 9.62362 16.8931 9.66518C17.4084 10.2469 17.9569 10.837 17.9403 11.693C17.907 12.2747 17.691 12.7733 17.2006 12.9395C17.184 12.6071 17.1591 12.2913 17.1009 11.9838C17.0344 11.6182 16.9098 11.2774 16.8183 10.9284C16.81 10.8951 16.7602 10.8951 16.7602 10.9284C16.7768 11.4021 16.81 11.9007 16.702 12.3495C16.6604 12.5656 16.5857 12.765 16.5025 12.9562C15.9291 12.7899 15.4222 12.1916 15.4803 11.6015C15.5385 10.8037 16.1036 10.0475 16.7602 9.63193Z" fill="black"/>
<path fill-rule="evenodd" clip-rule="evenodd" d="M7.62687 1.05544C7.70167 1.00558 7.75984 1.03882 7.78477 1.08868C8.38313 1.77015 9.02304 2.45161 8.9898 3.43226C8.96487 4.13035 8.69062 4.69546 8.13381 4.88661C8.10888 4.51263 8.10888 4.14697 8.03409 3.77299C7.95929 3.36578 7.83463 2.95856 7.70998 2.56796C7.70167 2.52641 7.6518 2.52641 7.6518 2.56796C7.6518 3.11646 7.70167 3.68989 7.5687 4.20514C7.52714 4.45446 7.43573 4.67884 7.32769 4.90323C6.66285 4.72871 6.0728 4.03062 6.13097 3.33253C6.21408 2.41837 6.89554 1.54576 7.62687 1.05544Z" fill="black"/>
<path fill-rule="evenodd" clip-rule="evenodd" d="M9.7793 10.4214C9.87072 10.3965 9.90396 10.4381 9.92889 10.4962C10.3777 11.2774 10.8015 12.0835 10.5522 13.0226C10.3943 13.6542 10.0037 14.1612 9.43026 14.2111C9.48012 13.8537 9.54661 13.4797 9.57154 13.1224C9.58816 12.6985 9.54661 12.3079 9.52999 11.8924C9.52999 11.8592 9.47181 11.8509 9.4635 11.8924C9.34715 12.3993 9.25574 12.9562 9.03966 13.4299C8.92332 13.6709 8.79035 13.8703 8.63245 14.0532C8.05071 13.7207 7.6518 12.9395 7.85126 12.283C8.1255 11.427 8.96487 10.7289 9.7793 10.4214Z" fill="black"/>
<path fill-rule="evenodd" clip-rule="evenodd" d="M14.7823 12.2414C14.7656 12.2082 14.6992 12.2165 14.6825 12.2581C14.2171 12.765 13.7684 13.272 13.785 13.9867C13.8016 14.5019 14.0011 14.9174 14.4083 15.067C14.4249 14.7845 14.4249 14.5102 14.4914 14.236C14.5662 13.9285 14.641 13.6459 14.7241 13.3468C14.7241 13.3135 14.7739 13.3135 14.7739 13.3551C14.7739 13.7457 14.7407 14.1612 14.8321 14.5684C14.8654 14.7429 14.9318 14.9091 15.0066 15.0753C15.497 14.9424 15.9208 14.4354 15.8709 13.9202C15.8211 13.247 15.3391 12.5988 14.7823 12.2414Z" fill="black"/>
<path fill-rule="evenodd" clip-rule="evenodd" d="M24.1649 23.5438C24.248 23.5023 24.2646 23.4275 24.248 23.3776C23.9654 22.4551 23.6746 21.5243 22.777 21.0174C22.1454 20.6684 21.4972 20.5936 21.0152 20.9925C21.3393 21.2002 21.6717 21.4329 21.9626 21.6989C22.295 21.998 22.5859 22.3222 22.8851 22.638C22.9017 22.6795 22.8851 22.7128 22.8269 22.6961C22.3532 22.397 21.8545 22.0645 21.331 21.8568C21.0817 21.7653 20.8323 21.7238 20.5747 21.7072C20.367 22.4053 20.6828 23.3111 21.3393 23.6352C22.1953 24.0424 23.3421 23.9261 24.1649 23.5438Z" fill="black"/>
<path fill-rule="evenodd" clip-rule="evenodd" d="M28.5695 11.3024C28.5196 11.2359 28.4614 11.2359 28.4116 11.2774C27.5971 11.7428 26.791 12.2082 26.5251 13.1722C26.3173 13.8371 26.3921 14.4853 26.8824 14.826C27.032 14.4853 27.1484 14.1279 27.3478 13.8038C27.5556 13.4215 27.7883 13.0808 28.0376 12.7152C28.0542 12.6985 28.1207 12.7152 28.0875 12.7484C27.9129 13.2636 27.6969 13.8038 27.6387 14.3523C27.6221 14.61 27.6304 14.851 27.6553 15.1086C28.3534 15.1335 29.1429 14.6432 29.2925 13.9451C29.5003 13.0393 29.118 12.0004 28.5695 11.3024Z" fill="black"/>
<path fill-rule="evenodd" clip-rule="evenodd" d="M24.9128 6.23292C24.8962 6.19136 24.8463 6.20799 24.8214 6.23292C24.3477 6.59027 23.8657 6.98087 23.7743 7.62078C23.7161 8.06124 23.8158 8.46015 24.1566 8.64298C24.2231 8.39366 24.2646 8.16928 24.3643 7.93658C24.4557 7.68726 24.5721 7.43795 24.7051 7.19694C24.7051 7.1637 24.7549 7.18032 24.7383 7.19694C24.6801 7.55429 24.597 7.91165 24.6053 8.27731C24.6136 8.43521 24.6303 8.5848 24.6801 8.75933C25.1538 8.70946 25.586 8.31887 25.6525 7.87841C25.6857 7.26343 25.3367 6.62351 24.9128 6.23292Z" fill="black"/>
<path fill-rule="evenodd" clip-rule="evenodd" d="M14.1756 0.45708C14.1257 0.440459 14.0842 0.457081 14.0759 0.506944C13.8016 1.01389 13.5024 1.56238 13.6686 2.17737C13.8099 2.61782 14.0592 2.94194 14.4332 2.97518C14.4083 2.73417 14.3418 2.49317 14.3418 2.23554C14.3335 1.9696 14.3418 1.69535 14.3667 1.4211C14.3667 1.39617 14.4083 1.38786 14.4166 1.4211C14.4831 1.77015 14.5662 2.1275 14.6908 2.45161C14.7656 2.6012 14.8654 2.73417 14.9651 2.85883C15.3474 2.63445 15.6216 2.10257 15.4803 1.67042C15.2809 1.1053 14.7241 0.648223 14.1756 0.45708Z" fill="black"/>
<path fill-rule="evenodd" clip-rule="evenodd" d="M31.528 11.1361C31.5613 11.1029 31.5613 11.053 31.5363 11.0198C31.2621 10.5045 30.9878 9.95605 30.3812 9.75659C29.9573 9.62362 29.5501 9.66518 29.2925 9.94774C29.5252 10.0475 29.7496 10.1472 29.9573 10.2718C30.1983 10.4131 30.4144 10.5793 30.6305 10.7539C30.6388 10.7705 30.6305 10.8037 30.6139 10.7871C30.2731 10.6541 29.9324 10.5129 29.6 10.4547C29.4172 10.4297 29.2676 10.4464 29.1014 10.4547C29.0515 10.9035 29.3507 11.4187 29.8077 11.5351C30.3812 11.693 31.0626 11.4769 31.528 11.1361Z" fill="black"/>
<path fill-rule="evenodd" clip-rule="evenodd" d="M26.176 0.831056C26.176 0.781192 26.1179 0.764571 26.0763 0.764571C25.4115 0.764571 24.7217 0.781193 24.1898 1.27983C23.8158 1.64549 23.6247 2.06933 23.8158 2.45161C24.0236 2.29371 24.248 2.10257 24.4724 1.96129C24.7466 1.80339 25.0209 1.67042 25.3117 1.53745C25.3367 1.52083 25.3699 1.55407 25.3367 1.58732C25.0292 1.84494 24.7051 2.10257 24.4724 2.43499C24.3643 2.58458 24.2978 2.75911 24.2231 2.92532C24.6552 3.18294 25.3117 3.16632 25.6691 2.78404C26.1179 2.2854 26.2758 1.48759 26.176 0.831056Z" fill="black"/>
<path fill-rule="evenodd" clip-rule="evenodd" d="M18.6799 2.45161C18.6051 2.43499 18.5719 2.48486 18.5719 2.52641C18.3059 3.35747 18.0317 4.20514 18.4306 5.04451C18.7132 5.62625 19.1619 6.01684 19.7104 5.96698C19.5858 5.63456 19.4611 5.31045 19.378 4.95309C19.3032 4.57081 19.2533 4.18021 19.1869 3.78961C19.1869 3.75637 19.2533 3.73144 19.2783 3.76468C19.4528 4.24669 19.6439 4.74533 19.9431 5.16917C20.0927 5.37693 20.2672 5.52652 20.4417 5.67611C20.9487 5.26889 21.1897 4.44615 20.8573 3.86441C20.4334 3.09153 19.5276 2.58458 18.6799 2.45161Z" fill="black"/>
<path fill-rule="evenodd" clip-rule="evenodd" d="M18.5968 0.0831055C18.5885 -7.43022e-08 18.5137 0 18.4638 0C17.666 0.116348 16.8516 0.232696 16.3031 0.930782C15.9208 1.39617 15.7795 1.95298 16.0372 2.39344C16.2698 2.16074 16.5025 1.90312 16.7602 1.69535C17.0594 1.47097 17.3668 1.2632 17.691 1.06375C17.7159 1.03882 17.7491 1.07206 17.7242 1.09699C17.4084 1.46266 17.0594 1.83663 16.835 2.24385C16.702 2.45161 16.6438 2.65938 16.6023 2.87545C17.1591 3.13308 17.9486 3.00842 18.3142 2.48486C18.7796 1.8117 18.8212 0.831056 18.5968 0.0831055Z" fill="black"/>
<path fill-rule="evenodd" clip-rule="evenodd" d="M31.2372 7.06397C31.2621 6.98918 31.2122 6.931 31.1624 6.91438C30.2981 6.51548 29.4171 6.09164 28.4614 6.44068C27.78 6.65676 27.2896 7.09721 27.273 7.70388C27.647 7.61247 28.0293 7.52105 28.4116 7.4795C28.8437 7.43795 29.2759 7.43795 29.708 7.43795C29.7496 7.43795 29.7745 7.49612 29.7163 7.50443C29.1928 7.64571 28.611 7.7953 28.129 8.06124C27.888 8.1859 27.6886 8.3438 27.4974 8.52663C27.888 9.1333 28.7523 9.51559 29.4171 9.23303C30.323 8.88398 30.9878 7.96151 31.2372 7.06397Z" fill="black"/>
<path fill-rule="evenodd" clip-rule="evenodd" d="M0.903631 7.23018C0.820525 7.19694 0.74573 7.26343 0.720798 7.32991C0.238786 8.43521 -0.276468 9.57376 0.172302 10.812C0.463171 11.6597 1.0366 12.283 1.81779 12.2913C1.69313 11.801 1.56016 11.3356 1.50199 10.8287C1.4272 10.2802 1.41888 9.72335 1.41888 9.16654C1.41888 9.12499 1.49368 9.10006 1.50199 9.15823C1.70975 9.8397 1.90921 10.5793 2.25825 11.2026C2.42446 11.5018 2.62392 11.7511 2.85661 11.9838C3.62118 11.4769 4.08657 10.3716 3.72091 9.51559C3.24721 8.38535 2.03387 7.54599 0.903631 7.23018Z" fill="black"/>
<path fill-rule="evenodd" clip-rule="evenodd" d="M4.08657 15.6322C4.06995 15.5407 4.11151 15.4826 4.16968 15.4659C5.10046 15.0338 6.06449 14.585 7.11993 14.9341C7.85126 15.1834 8.36651 15.6488 8.40806 16.3219C8.00085 16.2305 7.5687 16.1225 7.16148 16.0726C6.69609 16.0311 6.21408 16.0228 5.74037 16.0311C5.70713 16.0311 5.69882 16.0892 5.73206 16.1059C6.3138 16.2721 6.9454 16.4217 7.48559 16.7042C7.75153 16.8538 7.95929 17.0283 8.14212 17.2112C7.75153 17.876 6.80412 18.2832 6.06449 17.984C5.10046 17.5934 4.37744 16.5879 4.08657 15.6322Z" fill="black"/>
<path fill-rule="evenodd" clip-rule="evenodd" d="M9.80424 22.3222C9.71282 22.3222 9.67127 22.2474 9.66296 22.1726C9.4635 21.059 9.26405 19.9204 9.96214 18.9065C10.4441 18.2167 11.0841 17.7846 11.8071 17.9591C11.5827 18.358 11.3334 18.7652 11.1672 19.2057C10.9926 19.6877 10.8431 20.178 10.7101 20.6933C10.7101 20.7265 10.7516 20.7681 10.7849 20.7265C11.1256 20.1448 11.4663 19.5298 11.9484 19.0478C12.1561 18.8151 12.4137 18.6406 12.6714 18.4744C13.2448 19.1143 13.3861 20.2196 12.8791 20.9177C12.1727 21.8152 10.8929 22.2889 9.80424 22.3222Z" fill="black"/>
<path fill-rule="evenodd" clip-rule="evenodd" d="M26.176 14.3773C26.176 14.3357 26.1677 14.3025 26.1345 14.3025C25.7605 14.0947 25.3782 13.8953 24.9294 14.0282C24.6136 14.1113 24.3976 14.2858 24.3643 14.5767C24.5472 14.5352 24.7051 14.5019 24.8962 14.4936C25.079 14.4936 25.2785 14.4936 25.4696 14.5019C25.5029 14.5019 25.5029 14.5269 25.4696 14.5352C25.2286 14.6016 24.9627 14.6432 24.7383 14.7429C24.6303 14.8094 24.5472 14.8759 24.4557 14.9341C24.622 15.2166 24.9793 15.4078 25.32 15.308C25.719 15.1668 26.0264 14.7595 26.176 14.3773Z" fill="black"/>
<path fill-rule="evenodd" clip-rule="evenodd" d="M31.9353 15.5823C31.9602 15.5324 31.9352 15.4826 31.8854 15.4826C31.312 15.1668 30.7136 14.851 30.0072 15.0504C29.5501 15.1834 29.1761 15.4743 29.1429 15.8981C29.4088 15.8565 29.6748 15.7984 29.9573 15.7817C30.2648 15.7651 30.564 15.7734 30.8798 15.7984C30.9047 15.7984 30.913 15.8482 30.8798 15.8482C30.4975 15.9313 30.0737 16.0061 29.7163 16.1723C29.5667 16.2638 29.4088 16.3552 29.2759 16.4798C29.5252 16.9203 30.1235 17.2112 30.6139 17.0366C31.2288 16.8206 31.7358 16.189 31.9353 15.5823Z" fill="black"/>
<path fill-rule="evenodd" clip-rule="evenodd" d="M7.56039 23.0867C7.60194 23.12 7.6518 23.12 7.67673 23.0867C8.20861 22.7294 8.76542 22.372 8.9067 21.6989C9.02304 21.2335 8.93994 20.8013 8.59089 20.5686C8.5161 20.8179 8.41637 21.0756 8.31665 21.3C8.2003 21.5742 8.05071 21.8152 7.86788 22.0811C7.86788 22.0978 7.82632 22.0812 7.84294 22.0479C7.95929 21.6906 8.06733 21.3 8.07564 20.9343C8.10057 20.7515 8.06733 20.5852 8.05071 20.4107C7.55207 20.4107 7.03682 20.7847 6.9454 21.275C6.85399 21.8983 7.16148 22.613 7.56039 23.0867Z" fill="black"/>
<path fill-rule="evenodd" clip-rule="evenodd" d="M13.7767 22.5632C13.8016 22.5881 13.8349 22.5798 13.8515 22.5549C14.134 22.2474 14.4249 21.9233 14.4166 21.4412C14.4166 21.1337 14.2919 20.8761 14.0426 20.7764C14.0177 20.9592 14.0177 21.1171 13.9678 21.3C13.9263 21.4828 13.8681 21.6906 13.8265 21.8651C13.8099 21.8817 13.7767 21.8817 13.7767 21.8568C13.8016 21.6158 13.8099 21.3498 13.7601 21.0922C13.7351 20.9842 13.7019 20.8761 13.6354 20.7681C13.3362 20.8429 13.062 21.167 13.0786 21.4911C13.1285 21.9316 13.4276 22.3554 13.7767 22.5632Z" fill="black"/>
<path fill-rule="evenodd" clip-rule="evenodd" d="M31.8688 12.1417C31.8355 12.1085 31.794 12.0752 31.769 12.0919C31.1624 12.1916 30.5474 12.3246 30.1651 12.8647C29.8992 13.2387 29.8077 13.6542 30.0238 13.9867C30.1983 13.8038 30.3562 13.5878 30.5474 13.4299C30.7551 13.247 30.9795 13.0891 31.2039 12.9063C31.2122 12.8897 31.2538 12.9229 31.2372 12.9478C31.0211 13.2387 30.7551 13.5213 30.6139 13.8537C30.5224 14.0033 30.4809 14.1612 30.456 14.3357C30.9047 14.5102 31.4782 14.3773 31.7275 13.97C32.0765 13.4465 32.0516 12.6985 31.8688 12.1417Z" fill="black"/>
<path fill-rule="evenodd" clip-rule="evenodd" d="M25.9433 21.7737C25.9683 21.7487 25.9683 21.7238 25.9433 21.6989C25.7189 21.3332 25.4696 20.9842 25.0126 20.8761C24.6968 20.8013 24.4059 20.8595 24.2563 21.0922C24.4142 21.1337 24.597 21.1919 24.7383 21.2667C24.9294 21.3664 25.104 21.4412 25.2619 21.5576C25.2619 21.5742 25.2619 21.5908 25.2369 21.5908C25.0126 21.5243 24.7549 21.4495 24.5056 21.4163C24.3726 21.4163 24.2646 21.4329 24.1483 21.4495C24.1483 21.7903 24.3976 22.131 24.7217 22.1809C25.1621 22.2557 25.6358 22.0479 25.9433 21.7737Z" fill="black"/>
<path fill-rule="evenodd" clip-rule="evenodd" d="M2.88985 19.1725C2.85661 19.2057 2.85661 19.2473 2.88154 19.2805C3.24721 19.8705 3.62118 20.4772 4.35251 20.6517C4.83452 20.7847 5.30823 20.7182 5.56585 20.3442C5.29991 20.2445 5.03398 20.1614 4.78466 20.0284C4.5021 19.8872 4.22785 19.7126 3.96192 19.5298C3.93698 19.5298 3.94529 19.4799 3.97854 19.4966C4.37744 19.6295 4.78466 19.7542 5.19188 19.7957C5.37471 19.8041 5.55754 19.7957 5.73206 19.7542C5.76531 19.2389 5.38302 18.6738 4.85946 18.5575C4.17799 18.4328 3.38849 18.7237 2.88985 19.1725Z" fill="black"/>
<path fill-rule="evenodd" clip-rule="evenodd" d="M13.9346 7.23018C13.9013 7.21356 13.8515 7.2385 13.8349 7.27174C13.5191 7.82854 13.2116 8.39366 13.3612 9.07513C13.4858 9.53221 13.7684 9.88956 14.159 9.93943C14.1257 9.6818 14.0842 9.41586 14.0759 9.15823C14.0676 8.86736 14.0842 8.55987 14.1091 8.27731C14.1174 8.25238 14.1507 8.25238 14.1507 8.27731C14.2255 8.64298 14.2919 9.03358 14.4415 9.38262C14.5163 9.54883 14.616 9.69011 14.7158 9.82308C15.1479 9.61531 15.4637 9.03358 15.3058 8.57649C15.123 7.96151 14.5163 7.46288 13.9346 7.23018Z" fill="black"/>
<path fill-rule="evenodd" clip-rule="evenodd" d="M13.5523 12.8897C13.5523 12.8481 13.5024 12.8398 13.4775 12.8398C13.062 12.8731 12.6298 12.8897 12.314 13.2387C12.0979 13.4631 11.9982 13.7623 12.1229 14.0033C12.2475 13.8786 12.3722 13.7623 12.5218 13.6709C12.7046 13.5462 12.8542 13.4548 13.0287 13.3717C13.0537 13.3551 13.0703 13.38 13.062 13.38C12.8791 13.5545 12.6714 13.7457 12.5218 13.9534C12.4553 14.0615 12.4221 14.1612 12.3888 14.2692C12.6714 14.4354 13.0786 14.3856 13.2864 14.1279C13.5689 13.8038 13.6354 13.2969 13.5523 12.8897Z" fill="black"/>
<path fill-rule="evenodd" clip-rule="evenodd" d="M1.61834 18.117C1.61003 18.1503 1.62665 18.1752 1.64327 18.1752C2.05049 18.3497 2.46602 18.5076 2.87323 18.3331C3.1641 18.2167 3.38018 18.009 3.38018 17.7264C3.22228 17.768 3.03113 17.8261 2.88154 17.8594C2.68209 17.8843 2.48264 17.8926 2.28318 17.9093C2.27487 17.9093 2.26656 17.8843 2.27487 17.876C2.5325 17.7929 2.79013 17.7098 2.98958 17.5851C3.081 17.527 3.17241 17.4355 3.24721 17.3608C3.05606 17.0948 2.67378 16.9618 2.3746 17.0948C1.99231 17.2776 1.70975 17.7098 1.61834 18.117Z" fill="black"/>
<path fill-rule="evenodd" clip-rule="evenodd" d="M3.87881 3.44888C3.82895 3.4655 3.82895 3.49043 3.82895 3.51536C3.89543 4.014 3.98685 4.51263 4.419 4.83674C4.70155 5.06113 5.03398 5.14423 5.29992 4.98633C5.15864 4.84505 5.00905 4.70377 4.88439 4.54587C4.74311 4.37135 4.60183 4.18852 4.47717 3.99738C4.46886 3.98076 4.47717 3.96413 4.5021 3.97245C4.7348 4.15528 4.95087 4.37135 5.22512 4.49601C5.34978 4.57081 5.48275 4.60405 5.59078 4.6456C5.74869 4.29656 5.64896 3.81454 5.34978 3.59016C4.93425 3.31591 4.33589 3.29929 3.87881 3.44888Z" fill="black"/>
<path fill-rule="evenodd" clip-rule="evenodd" d="M3.67105 5.60132C3.62949 5.55976 3.59625 5.56807 3.57963 5.60132C3.11424 5.90881 2.67378 6.24123 2.55743 6.83959C2.48264 7.23018 2.58236 7.60416 2.88154 7.77868C2.95634 7.57923 2.98958 7.35484 3.081 7.14708C3.17241 6.92269 3.28876 6.69 3.41342 6.47392C3.43004 6.46561 3.47159 6.46561 3.44666 6.48223C3.38018 6.80635 3.29707 7.13046 3.29707 7.46288C3.29707 7.61247 3.322 7.76206 3.33862 7.90334C3.77077 7.87841 4.20292 7.54599 4.24447 7.12215C4.32758 6.57365 4.04502 5.97529 3.67105 5.60132Z" fill="black"/>
<path fill-rule="evenodd" clip-rule="evenodd" d="M1.15295 15.3164C1.14464 15.3579 1.17788 15.3911 1.21943 15.4078C1.85103 15.6488 2.48264 15.9147 3.15579 15.6322C3.62118 15.441 3.94529 15.1086 3.92867 14.6764C3.67105 14.7595 3.41342 14.8427 3.12255 14.8842C2.83168 14.9341 2.5325 14.9507 2.2167 14.9673C2.20008 14.9673 2.18346 14.9341 2.20839 14.9341C2.58236 14.7845 2.97296 14.6764 3.322 14.4604C3.4799 14.369 3.61287 14.236 3.72922 14.1113C3.43004 13.7041 2.81506 13.4797 2.33305 13.7041C1.743 13.9867 1.29423 14.6764 1.15295 15.3164Z" fill="black"/>
<path fill-rule="evenodd" clip-rule="evenodd" d="M21.6385 0.506944C21.5886 0.490323 21.5471 0.506944 21.5221 0.540186C21.0733 1.07206 20.6495 1.64549 20.716 2.37682C20.7659 2.89207 20.9902 3.31591 21.3975 3.44057C21.3975 3.15801 21.3975 2.88376 21.4473 2.58458C21.4972 2.27709 21.572 1.95298 21.6302 1.66211C21.6385 1.64549 21.68 1.64549 21.68 1.66211C21.6966 2.06933 21.6966 2.50979 21.8213 2.90869C21.8545 3.08322 21.9376 3.24943 22.0374 3.41564C22.5277 3.24943 22.9432 2.70093 22.8601 2.17737C22.7521 1.48759 22.2119 0.847677 21.6385 0.506944Z" fill="black"/>
<path fill-rule="evenodd" clip-rule="evenodd" d="M23.0596 9.09175C22.9931 9.05851 22.9515 9.05851 22.9183 9.10837C22.4778 9.77322 22.0124 10.4464 22.1454 11.3855C22.2535 12.042 22.5443 12.5822 23.043 12.7733C23.0346 12.416 22.9931 12.0586 23.018 11.7096C23.043 11.3024 23.1011 10.9118 23.1676 10.5212C23.1676 10.4962 23.2175 10.5045 23.2175 10.5378C23.2756 11.053 23.3006 11.6015 23.4668 12.1085C23.525 12.3412 23.6247 12.5656 23.7494 12.7733C24.2978 12.5988 24.7051 11.909 24.5887 11.2442C24.4059 10.3799 23.741 9.54883 23.0596 9.09175Z" fill="black"/>
<path d="M17.0095 14.1861C17.0095 14.1612 17.0095 14.1446 17.0095 14.1861Z" fill="black"/>
<path d="M29.6582 14.4853C29.2509 14.7097 28.8437 15.0338 28.5529 15.4078C28.2703 15.7651 28.0376 16.1557 27.8381 16.5629C27.6636 16.8704 27.5057 17.1779 27.3561 17.4854C27.3561 17.4189 27.3561 17.3608 27.3561 17.3109C27.3561 16.7125 27.273 16.1723 27.2813 15.574C27.2896 15.441 27.2896 15.2997 27.3063 15.1585C27.3063 15.1003 27.3063 15.0338 27.3312 14.9756C27.3395 14.9008 27.3395 14.826 27.3395 14.7679C27.3478 14.718 27.2896 14.6931 27.273 14.7429C27.2232 14.7928 27.1899 14.851 27.165 14.9091C27.1484 14.9673 27.1317 15.0338 27.0985 15.1086C27.0653 15.2416 27.0486 15.3912 27.0237 15.5241C26.9905 15.815 26.9905 16.0892 26.9655 16.3801C26.9489 16.671 26.9655 16.9702 26.9489 17.2444C26.9489 17.394 26.9489 17.5353 26.9323 17.6682C26.9323 17.7347 26.9323 17.8178 26.9157 17.8594C26.9157 17.8926 26.9157 17.9425 26.9157 17.9591C26.9157 17.9757 26.9157 17.9757 26.9157 17.9757C26.9157 17.9757 26.9157 17.9757 26.8907 17.984C26.8907 17.9924 26.8907 18.009 26.8824 18.0256C26.8824 18.0256 26.8824 18.0256 26.8824 18.0422C26.8741 18.1669 26.8492 18.2832 26.7993 18.4079C26.7495 18.4744 26.6996 18.5409 26.6497 18.5907C26.6414 18.624 26.6331 18.6406 26.5999 18.6572C26.5999 18.6738 26.5999 18.6738 26.5916 18.6738C26.5666 18.7237 26.5168 18.7569 26.4835 18.8068C26.3838 18.8982 26.309 18.9647 26.2342 19.0312C26.201 19.0727 26.1428 19.0893 26.1095 19.1226C26.0846 19.1558 26.068 19.1725 26.0348 19.1891C26.0264 19.1891 26.0264 19.2057 26.0181 19.2057C25.8104 19.347 25.586 19.455 25.3699 19.5298C25.3367 19.5464 25.3117 19.5631 25.2868 19.5631C25.3034 19.5631 25.2369 19.588 25.2203 19.588C25.1621 19.6295 25.0873 19.6295 24.9793 19.6628C24.8297 19.6877 24.6635 19.7293 24.5056 19.7459C24.3311 19.7708 24.1649 19.7957 24.0153 19.8041C24.0153 19.8041 23.9904 19.8041 23.9737 19.8041C23.9654 19.8041 23.9571 19.8041 23.9405 19.8041C23.8906 19.8041 23.8491 19.8041 23.8158 19.8041C23.741 19.8207 23.6413 19.8207 23.5582 19.8207C22.5443 19.8539 21.4806 19.8041 20.5082 20.1115C21.0235 19.721 21.572 19.322 22.054 18.8816C22.6191 18.3165 23.0679 17.6599 23.3172 16.9037C23.4086 16.7208 23.4585 16.5297 23.4917 16.3219C23.6164 15.8067 23.741 15.2831 23.9571 14.7595C23.9737 14.7263 23.9987 14.6681 24.0236 14.61C24.0319 14.6016 24.0319 14.6016 24.0319 14.585C24.0319 14.5767 24.0319 14.5767 24.0485 14.5767C24.0568 14.5435 24.0652 14.5185 24.0818 14.4853C24.1316 14.3856 24.1898 14.2858 24.248 14.1944C24.3643 14.0116 24.4724 13.8537 24.6053 13.6875C24.6136 13.6709 24.622 13.6542 24.6303 13.6459C24.6552 13.6293 24.6635 13.621 24.6635 13.621C24.6801 13.5711 24.73 13.5379 24.7632 13.5047C24.8214 13.4215 24.8962 13.3551 24.971 13.2803C25.1289 13.1141 25.2868 12.9728 25.4364 12.8149C25.6192 12.6404 25.8104 12.4575 25.9683 12.2747C26.176 12.042 26.3755 11.801 26.5417 11.5351C26.8243 11.0697 26.9489 10.5378 26.924 9.9976C26.8824 9.49066 26.7411 9.00033 26.5916 8.5017C26.5666 8.44353 26.5417 8.38535 26.5334 8.32718C26.5251 8.31056 26.5251 8.30225 26.5251 8.28562C26.5251 8.31056 26.5251 8.31056 26.5251 8.28562C26.5251 8.27731 26.5251 8.26069 26.5168 8.25238C26.5001 8.21914 26.4918 8.1859 26.4752 8.13604C26.442 8.01969 26.3921 7.89503 26.3755 7.76206C26.309 7.52105 26.2841 7.24681 26.2591 6.98918C26.2591 6.83959 26.2591 6.69 26.2758 6.54041C26.2841 6.49054 26.1927 6.47392 26.1927 6.52379C26.1428 6.66507 26.0929 6.79804 26.0763 6.931C26.0763 7.06397 26.0431 7.18863 26.0431 7.3216C26.0431 7.59585 26.0763 7.86179 26.1179 8.13604C26.201 8.63467 26.3256 9.12499 26.3921 9.62363C26.4253 9.73166 26.4253 9.8397 26.4503 9.95605C26.4503 9.97267 26.4503 10.0225 26.4503 10.0308C26.4503 10.0558 26.4503 10.0807 26.4503 10.1223C26.4503 10.1721 26.4503 10.2469 26.4503 10.2968C26.4503 10.3633 26.442 10.4131 26.4253 10.4713C26.4253 10.4962 26.4253 10.5212 26.4253 10.5544C26.4253 10.5544 26.4253 10.5544 26.4253 10.5793C26.417 10.5876 26.3921 10.6043 26.3921 10.6209C26.3755 10.7372 26.3422 10.8536 26.2924 10.9699C26.2841 11.0115 26.2758 11.0281 26.2591 11.0614C26.2425 11.078 26.2342 11.078 26.2342 11.1029C26.2093 11.1694 26.176 11.2359 26.1179 11.3024C26.0431 11.427 25.9683 11.5351 25.8685 11.6597C25.8685 11.668 25.8602 11.668 25.8602 11.6846L25.827 11.7096C25.8104 11.7262 25.7854 11.7594 25.7605 11.7927C25.7189 11.8425 25.6691 11.9007 25.6192 11.9506C25.5694 12.0004 25.5361 12.0337 25.5029 12.0669C25.5195 11.7761 25.4696 11.4852 25.3948 11.2109C25.2536 10.7622 25.0624 10.3466 24.8713 9.92281C24.6801 9.47404 24.5222 9.00033 24.4724 8.52663C24.4641 8.49339 24.4641 8.46015 24.4557 8.46015C24.4557 8.41028 24.381 8.41028 24.381 8.46015C24.3643 8.96709 24.4474 9.45741 24.5721 9.93943C24.6968 10.3716 24.8463 10.7954 24.9627 11.2359C24.9793 11.3356 25.0126 11.427 25.0292 11.5267C25.0375 11.5766 25.0707 11.6182 25.0707 11.668C25.0707 11.693 25.079 11.7179 25.079 11.7428C25.079 11.7594 25.079 11.7594 25.079 11.7761C25.079 11.7927 25.0873 11.7927 25.0873 11.7927C25.0873 11.8924 25.0873 11.9672 25.079 12.0669C25.079 12.1168 25.0707 12.1583 25.0707 12.1999V12.2165C25.0375 12.2581 25.0292 12.283 25.0292 12.3079C25.0126 12.3495 25.0126 12.3994 24.9793 12.4492C24.9793 12.4741 24.9627 12.4908 24.9627 12.524C24.9544 12.524 24.9544 12.5323 24.9461 12.5489C24.9128 12.6071 24.8713 12.6819 24.8463 12.7401C24.6968 12.8731 24.5555 13.0226 24.4142 13.1722C24.115 13.513 23.8408 13.8703 23.6579 14.2858C23.5499 14.5352 23.4668 14.7595 23.4086 15.0172C23.392 15.0338 23.392 15.067 23.3754 15.0837C23.259 14.6432 23.0513 14.236 22.8352 13.8371C22.5526 13.38 22.2618 12.9229 22.0457 12.4492C21.7548 11.8841 21.572 11.3024 21.4972 10.6874C21.4224 10.0724 21.4806 9.43248 21.572 8.83412C21.6551 8.1859 21.8296 7.5543 22.0457 6.931C22.054 6.89776 22.0623 6.86452 22.0789 6.83128C22.0955 6.7731 22.0124 6.73155 21.9792 6.78973C21.5221 7.7122 21.1315 8.68453 21.0152 9.70673C20.8905 9.41586 20.7659 9.12499 20.5664 8.84243C20.2755 8.38535 19.8933 7.99476 19.511 7.60416C19.3364 7.41302 19.1536 7.23018 18.9957 7.02242C18.8877 6.92269 18.8212 6.83959 18.7464 6.73155C18.655 6.62351 18.5968 6.54872 18.5303 6.44068C18.389 6.20799 18.2644 5.97529 18.1813 5.72597C18.1647 5.6678 18.0732 5.70104 18.0899 5.76753C18.1231 6.01684 18.1979 6.27447 18.2976 6.51548C18.3392 6.63182 18.4057 6.75648 18.4721 6.86452C18.5054 6.92269 18.522 6.96425 18.5719 7.01411C18.5719 7.02242 18.5719 7.03904 18.5968 7.04735C18.5968 7.06397 18.6134 7.09722 18.6134 7.11384C18.6467 7.14708 18.6633 7.18032 18.6882 7.19694C19.004 7.6374 19.3448 8.03631 19.6772 8.4269C19.7603 8.52663 19.86 8.62636 19.9265 8.75102C19.968 8.80088 20.0096 8.84243 20.0345 8.90061C20.0678 8.93385 20.0927 8.95047 20.101 8.98371C20.1176 9.00033 20.1176 9.00864 20.1426 9.01695V9.03358C20.3005 9.26627 20.4251 9.50728 20.5332 9.73997C20.5664 9.80646 20.583 9.86463 20.6246 9.93943C20.6246 9.95605 20.6495 9.98929 20.6495 10.0308C20.6661 10.0475 20.6744 10.0724 20.6744 10.0807C20.6744 10.089 20.6994 10.1721 20.6911 10.1056C20.6994 10.1555 20.7243 10.2054 20.7326 10.2552C20.7409 10.2552 20.7409 10.2552 20.7409 10.2552C20.7409 10.2802 20.7409 10.2885 20.7575 10.3217C20.7742 10.3799 20.7908 10.463 20.8157 10.5212C20.8988 10.8203 20.9819 11.1112 21.065 11.4021C21.0817 11.4603 21.1149 11.5351 21.1232 11.6098C21.1398 11.6431 21.1398 11.6846 21.1814 11.7179C21.1814 11.7594 21.198 11.7927 21.2229 11.8592C21.2312 11.8841 21.2396 11.9007 21.2396 11.9173C21.2894 12.0752 21.3559 12.2082 21.4141 12.3578C21.5471 12.6819 21.6966 12.9811 21.8878 13.272C21.4889 12.9063 21.0152 12.6154 20.5747 12.3246C20.2755 12.1251 19.9847 11.9506 19.7021 11.7594C19.6356 11.693 19.5774 11.6431 19.5027 11.5849C19.4611 11.56 19.4279 11.5351 19.3863 11.5018C19.378 11.4935 19.3614 11.4769 19.3531 11.4603C19.3364 11.4603 19.3364 11.4603 19.3364 11.4603C19.1869 11.3356 19.0788 11.2193 18.9625 11.078C18.8461 10.9616 18.7464 10.8287 18.6384 10.6957C18.6051 10.6708 18.5885 10.6375 18.5719 10.6043C18.5719 10.6043 18.5553 10.5876 18.5469 10.5793C18.5469 10.5544 18.522 10.5378 18.522 10.5212C18.4721 10.4464 18.4306 10.3716 18.3724 10.2802C18.2976 10.1139 18.2228 9.95605 18.1647 9.78153C18.0982 9.56545 18.04 9.366 18.0151 9.14161C18.0151 9.10006 17.932 9.10006 17.932 9.15823C17.9486 9.38262 17.9486 9.61531 17.9984 9.82308C18.0151 10.0225 18.0566 10.2303 18.1148 10.4048C18.2478 10.7788 18.4223 11.1112 18.655 11.427C19.1287 11.9755 19.727 12.3744 20.3171 12.7567C20.6163 12.9395 20.9154 13.1307 21.1897 13.3384C21.2645 13.3883 21.331 13.4382 21.3891 13.5047C21.3891 13.513 21.4141 13.5213 21.439 13.5462C21.4806 13.5795 21.5138 13.6044 21.5387 13.6459C21.68 13.7457 21.7881 13.8703 21.9127 14.0033C22.0374 14.1279 22.1371 14.2526 22.2368 14.3856C22.2368 14.4105 22.2534 14.4271 22.2701 14.4437C22.2867 14.4437 22.2867 14.4687 22.2867 14.4687C22.3199 14.5019 22.3366 14.5435 22.3532 14.585C22.403 14.6681 22.4529 14.7346 22.4945 14.8177C22.5277 14.8925 22.5776 14.9756 22.6025 15.067C22.6191 15.0837 22.6191 15.1086 22.6191 15.1169C22.6357 15.1501 22.644 15.1585 22.644 15.1668V15.1834C22.669 15.2416 22.6856 15.2914 22.7022 15.3496C22.6939 15.3164 22.7105 15.3496 22.7105 15.3579C22.7105 15.3662 22.7105 15.3828 22.7105 15.3995C22.7188 15.4161 22.7438 15.4493 22.7438 15.4826C22.7521 15.4992 22.7604 15.5158 22.7604 15.5241C22.7604 15.5324 22.7604 15.5324 22.7604 15.5491C22.7604 15.6155 22.7604 15.6654 22.7604 15.7236C22.7604 15.7734 22.7521 15.815 22.7438 15.8732C22.7438 15.8898 22.7438 15.9064 22.7438 15.9064C22.7438 15.923 22.7438 15.923 22.7438 15.923C22.7438 15.8732 22.7438 15.8898 22.7438 15.9396C22.7438 15.9646 22.7188 15.9812 22.7188 15.9895C22.7188 15.9895 22.7105 16.0144 22.7105 16.0311C22.7022 16.1059 22.669 16.2056 22.644 16.297C22.6108 16.4133 22.5776 16.5131 22.5277 16.6128C22.5028 16.6211 22.4945 16.6377 22.4945 16.671C22.4945 16.6544 22.4778 16.7042 22.4778 16.7042C22.4363 16.7707 22.4113 16.8372 22.3947 16.8787C22.2618 17.0865 22.1371 17.2776 21.9875 17.4688C21.9626 17.5187 21.921 17.5602 21.8878 17.6101C21.8712 17.635 21.8462 17.6599 21.8296 17.6766C21.8296 17.6849 21.7964 17.6932 21.7964 17.7098L21.7881 17.7181C21.705 17.8178 21.6218 17.9092 21.5471 18.009C21.3559 18.2084 21.1814 18.3746 20.9902 18.5409C20.6246 18.9065 20.2257 19.2389 19.8351 19.5797C19.5941 19.7957 19.3364 20.0035 19.1037 20.2279C19.1702 19.937 19.2284 19.6462 19.2783 19.347C19.3115 18.8567 19.2949 18.358 19.137 17.9093C18.9625 17.3608 18.655 16.887 18.2976 16.4549C17.9735 16.1059 17.666 15.7734 17.3918 15.3911C17.3835 15.3745 17.3668 15.3579 17.3668 15.3413C17.3419 15.3164 17.317 15.2831 17.292 15.2416C17.2505 15.1834 17.2256 15.1086 17.2006 15.0504C17.184 15.0172 17.1674 14.9673 17.1591 14.9507C17.1591 14.9341 17.1425 14.9174 17.1341 14.8925C17.1341 14.8925 17.1341 14.8842 17.1341 14.8676C17.1092 14.8177 17.0926 14.7595 17.0843 14.6848C17.051 14.585 17.0427 14.477 17.0095 14.3523C17.0095 14.3191 17.0095 14.2858 17.0095 14.2526C17.0095 14.2526 17.0095 14.2194 17.0095 14.2111C16.9929 14.2027 16.9929 14.2027 16.9929 14.1944C16.9929 14.1279 16.9846 14.0532 16.9846 13.9867C16.9846 13.9036 16.9846 13.8205 16.9846 13.7457C16.9762 13.6376 16.9762 13.5794 16.9596 13.4714C16.9513 13.2636 16.943 13.0559 16.943 12.8398C16.943 12.7235 16.7685 12.7068 16.7602 12.8315C16.7435 13.1057 16.6937 13.3551 16.6604 13.621C16.6521 13.8371 16.6355 14.0282 16.6106 14.2194C16.6106 14.5601 16.6355 14.8925 16.7435 15.2083C16.8682 15.5407 17.0926 15.8482 17.3087 16.1225C17.4583 16.3136 17.6162 16.5048 17.799 16.6959C17.907 16.8123 17.9984 16.9203 18.0899 17.0366C18.1148 17.1031 18.1647 17.153 18.2145 17.2029C18.2145 17.2195 18.2228 17.2278 18.2311 17.2361C18.2478 17.2776 18.2644 17.3109 18.2976 17.3524C18.4057 17.5436 18.5137 17.768 18.5968 18.0007C18.6051 18.009 18.6051 18.0173 18.6051 18.0339C18.6134 18.0672 18.6384 18.1004 18.6384 18.117C18.655 18.1752 18.6633 18.2334 18.6799 18.2998C18.7048 18.3497 18.7131 18.3996 18.7131 18.4411C18.4057 17.9259 17.8987 17.5851 17.3918 17.3109C16.8516 17.0366 16.2865 16.8039 15.7878 16.4632C15.7463 16.4217 15.6798 16.3718 15.6216 16.3219C15.5967 16.3136 15.5801 16.297 15.5718 16.2887C15.5718 16.2887 15.5634 16.2887 15.5634 16.2804C15.5468 16.2804 15.5468 16.2804 15.5468 16.2638C15.5302 16.2638 15.5302 16.2554 15.5302 16.2554C15.497 16.2388 15.4887 16.2222 15.4803 16.2056C15.364 16.1059 15.2643 15.9978 15.1812 15.8815C15.1479 15.8649 15.1479 15.8565 15.1313 15.8316C15.1313 15.8316 15.123 15.8067 15.1147 15.8067C15.1147 15.7984 15.1064 15.7734 15.0731 15.7651C15.0731 15.7651 15.0731 15.7485 15.0648 15.7402C15.0648 15.7236 15.0648 15.7236 15.0648 15.7153C15.015 15.6405 14.9734 15.574 14.9318 15.5075C14.8571 15.3413 14.7906 15.1917 14.7573 15.0172C14.7324 14.9673 14.7241 14.9008 14.7158 14.851C14.6992 14.8094 14.6244 14.8094 14.6244 14.851C14.6327 15.2166 14.6908 15.574 14.8571 15.8981C14.99 16.1723 15.1812 16.4217 15.4139 16.6294C15.8377 17.0699 16.3945 17.3441 16.943 17.6184C17.2006 17.768 17.4583 17.8926 17.6993 18.0755C17.7574 18.1087 17.8073 18.1503 17.8738 18.1835C17.8987 18.2167 17.907 18.225 17.9403 18.2334C17.9403 18.2417 17.9486 18.2417 17.9486 18.2583C17.9569 18.2749 17.9735 18.2749 17.9818 18.2915C18.0234 18.3248 18.0649 18.3746 18.1148 18.4245C18.173 18.491 18.1896 18.5575 18.2311 18.6323C18.3059 18.8234 18.3226 19.0395 18.3142 19.2805C18.3142 19.3054 18.3142 19.3304 18.3059 19.3636C18.3059 19.3802 18.3059 19.3885 18.2976 19.4051C18.2976 19.4135 18.2976 19.4218 18.2976 19.4384C18.2976 19.4883 18.2644 19.5381 18.2561 19.6046C18.2478 19.7126 18.2145 19.8207 18.1647 19.937C18.1231 20.0035 18.1065 20.0617 18.0899 20.1032C18.0566 20.1365 18.0566 20.1614 18.04 20.1947C18.0234 20.2196 18.0151 20.2445 18.0151 20.2611C17.9569 20.3858 17.8987 20.4855 17.8239 20.6019C17.5497 21.0756 17.2422 21.5077 16.9513 21.9814C16.8765 21.4911 16.7352 21.0423 16.5358 20.5936C16.1036 19.6462 15.4388 18.8317 14.7158 18.1087C14.0426 17.4189 13.3113 16.7956 12.7129 16.0311C12.6548 15.9396 12.5717 15.8565 12.5135 15.7651C12.5052 15.7651 12.5052 15.7402 12.4885 15.7236C12.4885 15.6986 12.4553 15.682 12.4553 15.6654C12.4221 15.6155 12.3888 15.574 12.3639 15.5241C12.2392 15.3496 12.1395 15.1501 12.0315 14.9424C12.0148 14.8842 12.0148 14.8427 11.9982 14.7928C11.965 14.7679 11.965 14.7346 11.9567 14.7097C11.9567 14.7097 11.9567 14.7097 11.9484 14.6931V14.6681C11.8985 14.5435 11.8736 14.4437 11.8569 14.3357C11.832 14.2194 11.8071 14.1113 11.7905 13.9867C11.7905 13.97 11.7905 13.9285 11.7905 13.9119C11.7905 13.8953 11.7905 13.8454 11.7905 13.8786C11.7905 13.8703 11.7905 13.862 11.7821 13.8454C11.7905 13.862 11.7905 13.862 11.7821 13.8454C11.7821 13.7789 11.7821 13.7124 11.7489 13.6542C11.7489 13.4465 11.7821 13.2304 11.8071 13.0226C11.8071 12.9478 11.8154 12.8731 11.832 12.8149C11.8569 12.7816 11.8653 12.7733 11.8985 12.7484C11.9234 12.7318 11.9567 12.6985 11.9982 12.6819C11.9982 12.6653 12.0148 12.6653 12.0232 12.6653C12.0398 12.6404 12.0647 12.632 12.073 12.632C12.2309 12.524 12.3971 12.4492 12.5633 12.3827C12.9539 12.2082 13.3362 12.0752 13.7351 11.8841C14.1839 11.668 14.6244 11.3938 14.99 11.0447C15.3391 10.7372 15.6216 10.355 15.8294 9.90618C16.0039 9.49066 16.1036 9.03358 16.1119 8.56818C16.1286 8.32718 16.1036 8.10279 16.0787 7.8701C16.0455 7.61247 15.979 7.36315 15.8959 7.12215C15.8626 7.03904 15.7795 7.06397 15.7795 7.14708C15.7961 7.41302 15.7961 7.67064 15.7961 7.93658C15.7961 8.1859 15.7961 8.43521 15.7795 8.6596C15.7712 8.70946 15.7712 8.77595 15.7463 8.83412C15.7463 8.83412 15.7463 8.84243 15.7463 8.85074C15.7463 8.85074 15.7463 8.86736 15.7463 8.88399C15.7463 8.90061 15.738 8.93385 15.7214 8.96709C15.6964 9.07513 15.6798 9.17485 15.6216 9.29951C15.5967 9.39924 15.5468 9.49897 15.497 9.59869C15.497 9.62362 15.497 9.63194 15.4887 9.64856C15.4887 9.64856 15.472 9.69842 15.4637 9.69842C15.4388 9.73997 15.4222 9.80646 15.3972 9.84801C15.3308 9.94774 15.2726 10.0392 15.1978 10.1306C15.1812 10.1804 15.1479 10.2137 15.1313 10.2635C15.123 10.2718 15.0814 10.2968 15.0648 10.33C15.0648 10.33 15.0648 10.3466 15.0399 10.3633V10.3716C14.8737 10.5295 14.7241 10.6957 14.5579 10.837C14.4415 10.9201 14.3667 10.9866 14.2753 11.053C14.267 11.053 14.267 11.053 14.267 11.053C14.2338 11.053 14.2255 11.0614 14.2171 11.0614C14.1922 11.078 14.1756 11.0863 14.1507 11.1112C14.1091 11.1528 14.0343 11.186 13.9844 11.2193C13.7767 11.3356 13.5523 11.4603 13.3196 11.5517C12.9539 11.7262 12.5633 11.8425 12.1894 12.0337C12.0896 12.0752 11.9733 12.1168 11.8902 12.175C12.2226 11.2525 12.6548 10.3633 12.821 9.38262C12.929 8.8923 12.9539 8.39366 12.8958 7.89503C12.821 7.30498 12.6631 6.75648 12.4387 6.19137C12.4137 6.10826 12.2642 6.15812 12.2891 6.24123C12.4802 6.87283 12.5633 7.52105 12.5633 8.16928C12.5633 8.31056 12.5467 8.44353 12.5467 8.58481C12.5384 8.65129 12.5218 8.70946 12.5218 8.78426C12.5135 8.8175 12.5052 8.84243 12.5052 8.88399C12.5052 8.88399 12.5052 8.91723 12.5052 8.93385C12.5052 8.93385 12.4969 8.93385 12.4969 8.95047C12.4969 8.95047 12.4969 8.95047 12.4969 8.96709C12.447 9.2081 12.3888 9.46572 12.2974 9.69842C12.1478 10.2054 11.94 10.6957 11.7406 11.1777C11.6907 11.294 11.6492 11.4021 11.5993 11.5101C11.5827 11.4436 11.5827 11.3855 11.5495 11.319C11.4331 10.9118 11.2503 10.5212 11.001 10.1638C10.8846 9.98098 10.7516 9.80646 10.6436 9.63194C10.5854 9.54883 10.5273 9.47403 10.4608 9.38262C10.4441 9.34938 10.4192 9.32444 10.3943 9.27458C10.3777 9.27458 10.3777 9.27458 10.3694 9.26627C10.3444 9.24134 10.3361 9.21641 10.3195 9.19148C10.3029 9.16654 10.2946 9.14161 10.2862 9.1333C10.2779 9.10837 10.253 9.09175 10.2447 9.05851C10.2779 9.12499 10.253 9.09175 10.253 9.07513C10.2281 9.02527 10.1865 8.9754 10.1699 8.94216C10.12 8.85905 10.0536 8.76764 10.0203 8.68453C9.97045 8.60143 9.93721 8.51832 9.89565 8.4269C9.88734 8.38535 9.87072 8.33549 9.84579 8.31056C9.83748 8.28563 9.83748 8.27732 9.83748 8.25238H9.82086C9.80424 8.23576 9.80424 8.21914 9.80424 8.1859C9.77099 8.09448 9.73775 7.98645 9.73775 7.87841C9.71282 7.82854 9.71282 7.76206 9.6962 7.70389C9.68789 7.67895 9.68789 7.64571 9.68789 7.62078C9.68789 7.61247 9.68789 7.61247 9.68789 7.60416C9.68789 7.60416 9.68789 7.60416 9.68789 7.58754C9.68789 7.57923 9.68789 7.57092 9.68789 7.54599C9.67958 7.41302 9.68789 7.29667 9.68789 7.14708C9.6962 7.0806 9.71282 7.01411 9.71282 6.95594C9.71282 6.87283 9.73775 6.79804 9.74606 6.73155C9.75437 6.67338 9.68789 6.64845 9.67127 6.69831C9.6214 6.80635 9.57154 6.92269 9.52999 7.03904C9.48012 7.15539 9.4635 7.27174 9.43026 7.40471C9.39702 7.61247 9.38871 7.82854 9.41364 8.05293C9.4635 8.44353 9.6214 8.8175 9.82086 9.16654C9.88734 9.26627 9.92889 9.34938 9.98707 9.43248C9.92889 9.45741 9.87072 9.49897 9.7793 9.51559H9.75437C9.73775 9.53221 9.73775 9.53221 9.71282 9.54883C9.67958 9.54883 9.64634 9.56545 9.59647 9.56545C9.4635 9.61531 9.33053 9.64856 9.18094 9.66518C8.91501 9.70673 8.68231 9.73166 8.40806 9.70673C8.1255 9.69842 7.85957 9.63193 7.61025 9.54883C7.31938 9.41586 7.07006 9.26627 6.82075 9.05851C6.77919 9.02526 6.72933 9.00033 6.71271 8.96709C6.66285 8.93385 6.59636 8.98371 6.64622 9.02526C7.07006 9.45741 7.5687 9.80646 8.14212 9.94774C8.71555 10.089 9.3056 10.0225 9.83748 9.8397C9.94551 9.81477 10.0369 9.79815 10.1367 9.73166C10.1533 9.72335 10.1699 9.71504 10.1865 9.69842C10.2364 9.78152 10.2779 9.85632 10.3361 9.93112C10.3444 9.98098 10.3943 10.0225 10.4192 10.0641C10.4441 10.0724 10.4441 10.0973 10.4608 10.1139C10.4608 10.1306 10.4608 10.1472 10.4857 10.1472C10.7101 10.4962 10.9095 10.8287 11.0508 11.2193C11.0841 11.2774 11.1007 11.3356 11.1256 11.3855C11.1256 11.3855 11.1256 11.3855 11.1256 11.4021C11.1256 11.4187 11.1422 11.4187 11.1505 11.4353C11.1505 11.4686 11.1589 11.5018 11.1672 11.5351C11.217 11.668 11.2503 11.7927 11.2669 11.9256C11.2669 11.9921 11.2918 12.0669 11.3001 12.1168C11.3001 12.1583 11.3084 12.1999 11.3168 12.2498C11.2503 12.4243 11.1838 12.6071 11.1256 12.7983C10.9511 13.4132 10.8015 14.0448 10.9095 14.6848C11.0342 15.2 11.3168 15.6488 11.6575 16.056C11.2503 15.8482 10.8264 15.6405 10.4275 15.4493C10.2364 15.3579 10.0369 15.2831 9.87072 15.1917C9.75437 15.1585 9.67958 15.1086 9.59647 15.067C9.5383 15.0504 9.49675 15.0338 9.4635 15.0172C9.44688 15.0172 9.42195 15.0006 9.41364 14.9839C9.38871 14.9673 9.37209 14.9673 9.33884 14.9507C8.98149 14.7845 8.63245 14.6183 8.30003 14.4271C8.13381 14.3191 7.98422 14.2111 7.83463 14.1113C7.76815 14.0615 7.68504 14.0033 7.61025 13.9451C7.5687 13.9202 7.54377 13.8786 7.50221 13.862C7.50221 13.8537 7.48559 13.8371 7.47728 13.8371C7.48559 13.8371 7.43573 13.8038 7.42742 13.8038C7.26952 13.6709 7.14486 13.5213 7.01189 13.38C6.94541 13.3135 6.90385 13.247 6.83737 13.1722C6.81244 13.1473 6.77919 13.1057 6.74595 13.0725C6.72933 13.0393 6.72102 13.0226 6.71271 13.006C6.7044 12.9894 6.69609 12.9811 6.69609 12.9728C6.57143 12.7983 6.4717 12.6154 6.3886 12.4409C6.34704 12.3412 6.29718 12.2415 6.25563 12.1417C6.19745 12.042 6.16421 11.9506 6.13928 11.8509C5.98138 11.3605 5.9149 10.8536 5.81517 10.3383C5.65727 9.47404 5.4495 8.60974 5.02567 7.82854C4.93425 7.69558 4.82621 7.5543 4.7348 7.42133C4.78466 7.54599 4.80959 7.67064 4.85115 7.7953C5.35809 9.4491 5.57416 11.8675 5.74868 12.3412C5.88996 12.7484 6.10604 13.1224 6.36367 13.4631C6.3886 13.4963 6.41353 13.513 6.42184 13.5379C6.36367 13.5213 6.30549 13.5047 6.25563 13.4714C6.03955 13.4215 5.81517 13.3717 5.59909 13.3135C5.49106 13.2969 5.3664 13.272 5.25005 13.247C5.2085 13.2387 5.15863 13.2387 5.09215 13.2304C5.08384 13.2304 5.08384 13.2138 5.06722 13.2138C5.03398 13.2138 5.00073 13.1972 4.98411 13.1972C4.58521 13.1224 4.15306 13.0393 3.76246 12.8897C3.7126 12.8647 3.67105 12.8398 3.62118 12.8149C3.62118 12.8149 3.59625 12.8149 3.59625 12.8066H3.58794C3.56301 12.7983 3.52977 12.7816 3.51315 12.7733C3.40511 12.7152 3.322 12.6653 3.23059 12.6071C3.12255 12.5489 3.03113 12.4825 2.95634 12.416C2.90647 12.3827 2.85661 12.3412 2.81506 12.3079C2.79013 12.2913 2.7652 12.2747 2.7652 12.2747C2.74026 12.2414 2.70702 12.2165 2.68209 12.1916C2.39953 11.9173 2.13359 11.6098 1.91752 11.2774C1.88428 11.2109 1.81779 11.2525 1.83441 11.3024C2.0588 11.8093 2.3746 12.283 2.7652 12.6653C3.08931 12.9811 3.51315 13.1889 3.93698 13.3551C4.74311 13.6542 5.60741 13.7374 6.43846 14.0116C6.60467 14.0615 6.76257 14.1279 6.92878 14.2027C7.00358 14.2194 7.07837 14.2526 7.14486 14.2858C7.45235 14.5435 7.78477 14.7679 8.13381 14.9673C8.84852 15.3745 9.61309 15.682 10.3361 16.0228C10.3943 16.0477 10.4441 16.056 10.4857 16.0726C10.5106 16.0892 10.5356 16.1059 10.5522 16.1225C10.5522 16.1225 10.5854 16.1308 10.602 16.1308C10.6935 16.1723 10.7849 16.2222 10.8763 16.2721C11.0508 16.3635 11.2503 16.4549 11.4331 16.5629C11.6575 16.6959 11.8985 16.8206 12.1063 16.9785C12.0148 16.9618 11.8985 16.9535 11.8071 16.9535C11.5162 16.9369 11.2337 16.9785 10.9594 17.045C10.6519 17.1281 10.3777 17.2361 10.0868 17.3691C9.60478 17.5602 9.13939 17.7846 8.64076 17.9508C8.5909 17.984 8.54103 18.009 8.48286 18.0173C8.46624 18.0173 8.42468 18.0339 8.40806 18.0505C8.39144 18.0505 8.3582 18.0671 8.33327 18.0671C8.25016 18.1087 8.14212 18.1253 8.06733 18.1669C7.85957 18.2251 7.67673 18.2666 7.46897 18.3165C7.36924 18.3497 7.26952 18.3497 7.1781 18.358C7.14486 18.3746 7.09499 18.3746 7.04513 18.3746C7.0202 18.3746 7.0202 18.3746 7.01189 18.3746C6.99527 18.3746 6.97034 18.3913 6.94541 18.3913C6.76257 18.3913 6.57143 18.3913 6.3886 18.3497C6.36367 18.3497 6.34705 18.3497 6.3138 18.3414C6.3138 18.3414 6.3138 18.3414 6.29718 18.3414C6.25563 18.3331 6.20577 18.3331 6.1559 18.3165C6.08111 18.2998 5.98969 18.2666 5.88996 18.2334C5.84841 18.2167 5.79855 18.2084 5.76531 18.1752C5.74869 18.1752 5.73206 18.1669 5.70713 18.1503C5.69882 18.1503 5.69882 18.1419 5.65727 18.1419C5.64065 18.117 5.59909 18.1087 5.56585 18.1004C5.56585 18.1004 5.53261 18.0838 5.5243 18.0671C5.49106 18.0505 5.44119 18.0173 5.39133 18.009C5.20019 17.8843 5.00073 17.7597 4.82621 17.6184C4.80128 17.5934 4.78466 17.5685 4.75142 17.5602L4.74311 17.5519C4.74311 17.5353 4.72649 17.527 4.72649 17.5187C4.66 17.4688 4.60183 17.4189 4.54365 17.3691C4.44393 17.2776 4.35251 17.1945 4.24447 17.0865C3.97023 16.7956 3.7126 16.4798 3.47159 16.1391C3.41342 16.0726 3.31369 16.1557 3.33862 16.2222C3.52977 16.4965 3.72922 16.7707 3.92036 17.045C4.08657 17.2693 4.26941 17.4854 4.45224 17.6932C4.54365 17.7846 4.62676 17.8677 4.71818 17.9508C4.7348 17.9674 4.7348 17.9757 4.75142 17.984L4.78466 18.009C4.75142 18.0007 4.77635 18.0007 4.78466 18.009C4.80128 18.0339 4.82621 18.0505 4.85946 18.0671C4.90101 18.117 4.95087 18.1669 5.00904 18.2167C5.17526 18.3497 5.34978 18.4744 5.5243 18.5575C5.70713 18.6572 5.88996 18.732 6.08942 18.7902C6.13928 18.7985 6.16421 18.7985 6.21408 18.8151C6.25563 18.8234 6.28887 18.8234 6.3138 18.8317C6.21408 18.8151 6.3138 18.8317 6.34704 18.8317C6.36367 18.8483 6.3886 18.8483 6.41353 18.8483C6.50495 18.8816 6.59636 18.8816 6.69609 18.8899C7.11162 18.9065 7.51052 18.8483 7.90943 18.7486C7.92605 18.7486 7.97591 18.7237 8.00085 18.7154C7.83463 18.9065 7.68504 19.106 7.52714 19.3054C7.32769 19.5963 7.13655 19.8872 6.91216 20.1614C6.90385 20.1614 6.90385 20.1863 6.87061 20.1947C6.87061 20.203 6.8623 20.2196 6.85399 20.2279C6.83737 20.2445 6.80413 20.2778 6.76257 20.311C6.71271 20.3858 6.64623 20.4357 6.57143 20.4938C6.51326 20.552 6.45508 20.6019 6.3886 20.6684C6.34704 20.6933 6.3138 20.7182 6.28887 20.7348C6.27225 20.7515 6.26394 20.7515 6.25563 20.7681C6.21408 20.7681 6.20577 20.7847 6.18914 20.8013C5.71544 21.0922 5.15863 21.1836 4.60183 21.1587C4.53534 21.1504 4.52703 21.2501 4.60183 21.2501C5.04229 21.3 5.49106 21.3166 5.9149 21.1919C6.27225 21.0922 6.61298 20.9094 6.87061 20.6684C7.01189 20.552 7.14486 20.4357 7.25289 20.311C7.27783 20.2611 7.31938 20.2196 7.36093 20.178C7.36924 20.1614 7.36924 20.1614 7.36924 20.1531C7.32769 20.1947 7.39417 20.1531 7.40249 20.1282C7.41911 20.0949 7.42742 20.0866 7.43573 20.07C7.50221 20.0035 7.55208 19.9287 7.60194 19.8539C7.71829 19.721 7.8097 19.588 7.92605 19.4467C7.97591 19.3553 8.03409 19.2888 8.07564 19.2223C8.10888 19.2057 8.1255 19.1725 8.14212 19.1226C8.18368 19.106 8.18368 19.0893 8.2003 19.0727C8.2003 19.0727 8.20861 19.0561 8.21692 19.0395C8.38313 18.8567 8.54934 18.6821 8.73217 18.5325C8.77373 18.4993 8.82359 18.4661 8.88176 18.4245H8.89007C8.89007 18.4162 8.9067 18.4162 8.91501 18.4162C9.02304 18.3663 9.12277 18.3331 9.21419 18.2832C9.4635 18.1918 9.71282 18.0921 9.94551 17.9924C10.1948 17.8677 10.4691 17.7597 10.735 17.6516C10.7516 17.6516 10.7599 17.6433 10.7849 17.6433C10.7849 17.635 10.8015 17.635 10.8015 17.635C10.8264 17.635 10.8597 17.6184 10.8929 17.6101C10.9677 17.5851 11.0425 17.5685 11.1007 17.5519C11.2503 17.5187 11.3832 17.4854 11.5328 17.4771C11.5328 17.4771 11.5827 17.4688 11.5993 17.4688C11.6076 17.4688 11.6409 17.4688 11.6575 17.4688C11.7157 17.4688 11.7988 17.4688 11.8569 17.4688C11.8985 17.4688 11.965 17.4771 12.0148 17.4771C12.0647 17.4771 12.0979 17.4854 12.1146 17.4854C12.1312 17.4854 12.1478 17.4854 12.1644 17.502C12.2725 17.527 12.3888 17.5519 12.4969 17.5934C12.555 17.6101 12.5966 17.635 12.6548 17.6599C12.6631 17.6599 12.6714 17.6682 12.6714 17.6682C12.7046 17.6849 12.7296 17.6932 12.7711 17.7181C12.8625 17.768 12.9539 17.8345 13.062 17.8926C13.0869 17.9342 13.1368 17.9674 13.2033 18.0007C13.2116 18.0173 13.2282 18.0339 13.2282 18.0339C13.2531 18.0672 13.2697 18.0838 13.278 18.0838C13.4609 18.25 13.6271 18.4411 13.7767 18.6323C13.8016 18.6738 13.8349 18.7154 13.8681 18.7652C13.8681 18.7819 13.9013 18.7902 13.9013 18.7985C13.918 18.8234 13.9263 18.8567 13.9512 18.8899C14.026 18.9979 14.0842 19.1143 14.1507 19.2389C14.2171 19.3553 14.2753 19.4633 14.3418 19.588C14.4748 19.937 14.5745 20.311 14.641 20.7265C14.7324 21.2252 14.7823 21.7155 14.7989 22.2307C14.8404 23.2031 14.7989 24.1754 14.7324 25.1561C14.6659 26.0868 14.5828 26.9927 14.5579 27.9235C14.5579 27.9401 14.5662 27.9567 14.5745 27.9567C14.5745 27.9733 14.5745 27.9733 14.5745 27.99C14.5745 27.9983 14.6077 28.0232 14.5745 27.9733C14.5828 27.9983 14.6077 28.0232 14.6077 28.0481C14.6244 28.0814 14.6576 28.1312 14.6908 28.1811C14.8321 28.3058 14.99 28.4055 15.1562 28.472C15.5302 28.6382 15.9291 28.7213 16.3197 28.7296C16.6854 28.7462 17.051 28.688 17.4001 28.5634C17.5331 28.5135 17.6743 28.4304 17.8156 28.339C17.9153 28.2725 18.0068 28.1728 18.0483 28.0647C18.0732 28.0481 18.0982 27.9983 18.0899 27.9567C18.04 27.6492 18.0151 27.375 17.9984 27.0758C17.9652 26.7683 17.9569 26.4608 17.9486 26.1783C17.9486 25.5633 17.9486 24.94 17.9984 24.325C18.04 23.8014 18.0732 23.3444 18.2311 22.854C18.2478 22.8125 18.2478 22.7626 18.2644 22.7128C18.3724 22.4884 18.5054 22.2557 18.655 22.0479C18.7132 21.998 18.7547 21.9316 18.8046 21.8651C18.8129 21.8485 18.8212 21.8235 18.8544 21.8069L18.8711 21.7903C18.8877 21.757 18.8877 21.7487 18.9209 21.7238C19.0206 21.6158 19.1287 21.4994 19.2533 21.3997C19.3697 21.2916 19.4694 21.2002 19.6273 21.1088C19.6273 21.0922 19.6439 21.0922 19.6439 21.0922C19.6689 21.0756 19.6855 21.0589 19.7104 21.0506C19.7354 21.0257 19.7769 21.0091 19.8185 20.9842C19.8849 20.9343 19.968 20.8844 20.0262 20.8429C20.1924 20.7598 20.3337 20.7099 20.5082 20.6517C20.5165 20.6351 20.5249 20.6351 20.5498 20.6351C20.5498 20.6351 20.5664 20.6351 20.5664 20.6185C20.5913 20.6019 20.6495 20.5936 20.6661 20.5852C20.7659 20.5603 20.8323 20.5354 20.9071 20.5188C21.2146 20.4357 21.5138 20.4024 21.8379 20.3775C21.8712 20.3775 21.8961 20.3775 21.921 20.3775C21.9376 20.3775 21.9875 20.3775 22.0457 20.3775C22.1122 20.3609 22.2036 20.3609 22.2618 20.3609C22.4363 20.3442 22.6025 20.3442 22.7604 20.3442C23.0845 20.3442 23.4086 20.3442 23.7161 20.3276C24.3809 20.2944 25.0292 20.2113 25.6691 19.962C26.0929 19.7874 26.5251 19.4966 26.8492 19.1558C27.4974 18.4744 27.8548 17.5934 28.2454 16.7541C28.2703 16.7042 28.2869 16.6544 28.3035 16.6128V16.5962C28.3035 16.5879 28.3035 16.5879 28.3285 16.5796C28.3368 16.538 28.3534 16.4965 28.3949 16.4632C28.3949 16.4549 28.3949 16.43 28.3949 16.4217C28.4116 16.3967 28.4282 16.3718 28.4365 16.3469C28.4614 16.2887 28.4864 16.2554 28.503 16.189C28.611 15.9895 28.7108 15.8067 28.8437 15.6072C28.9019 15.5158 28.9684 15.4327 29.0349 15.3413C29.0598 15.2914 29.1013 15.2582 29.118 15.2083C29.1429 15.2 29.1429 15.1917 29.1429 15.1834C29.1512 15.1834 29.1928 15.1501 29.1595 15.1668C29.1761 15.1501 29.1928 15.1335 29.2094 15.1086C29.2177 15.1086 29.2177 15.1003 29.2177 15.1003C29.2177 15.1003 29.226 15.1003 29.2509 15.0837C29.3922 14.9091 29.5667 14.7346 29.7496 14.6016C29.8077 14.5435 29.7163 14.4437 29.6582 14.4853Z" fill="black"/>
</svg>
