<svg width="64" height="64" viewBox="0 0 64 64" fill="none" xmlns="http://www.w3.org/2000/svg">
<path d="M63.9326 37.7467L58.5432 18.7192C58.4758 18.4783 58.3411 18.2374 58.2063 18.0769L47.8316 7.47924C47.4274 7.07781 46.8884 6.99753 46.4168 7.31867L37.3221 13.3401L30.5179 0.654997C30.1811 0.0930009 29.5747 -0.147854 29.0358 0.093001L19.4695 4.82983C19.1326 4.9904 18.9305 5.31154 18.7958 5.63268L15.0905 17.3543L9.76842 15.9895C9.22947 15.8289 8.62316 16.15 8.42105 16.7923L0.134737 36.8636C2.98023e-08 37.1045 0 37.4256 0 37.7467L3.36842 62.7957C3.43579 63.5183 3.97474 64 4.58105 64H59.6884C60.2947 64 60.8337 63.438 60.9011 62.7957L64 38.389C64 38.2285 64 37.9876 63.9326 37.7467ZM47.8989 53.5629C47.8316 55.0081 46.8884 56.2123 45.6758 56.2123H18.6611C17.7179 56.2123 16.9095 55.4095 16.7074 54.3658C16.2358 51.8769 15.6295 47.1401 16.64 42.8047C19.2674 31.4845 19.3347 45.4541 20.6821 45.4541C22.2316 45.4541 21.5579 36.3016 22.0968 35.1776C25.1284 28.4337 24.1853 40.2356 25.6 40.2356C26.9474 40.2356 27.0147 28.3534 29.5074 28.3534C31.9326 28.3534 31.2589 37.827 33.0779 37.827C35.0316 37.827 34.2232 25.0617 38.8042 31.0831C40.4884 33.3311 39.8821 43.3667 41.0947 43.3667C43.1832 43.3667 42.5768 33.2508 45.2042 39.2722C48.3705 46.7387 47.9663 49.3881 47.8989 53.5629Z" fill="black"/>
</svg>
