<svg width="64" height="64" viewBox="0 0 64 64" fill="none" xmlns="http://www.w3.org/2000/svg">
<rect x="2.5" y="2.5" width="59" height="59" rx="2.5" fill="#D3B8A5" stroke="#441D00" stroke-width="5"/>
<path d="M25.4429 38.9362H38.638C38.7294 38.9339 38.8164 38.8964 38.8811 38.8315C38.9457 38.7666 38.983 38.6791 38.9852 38.5873V16.0288C38.983 15.937 38.9457 15.8496 38.8811 15.7846C38.8164 15.7197 38.7294 15.6822 38.638 15.68H25.4429C25.3515 15.6822 25.2645 15.7197 25.1998 15.7846C25.1352 15.8496 25.0979 15.937 25.0957 16.0288V38.5873C25.0979 38.6791 25.1352 38.7666 25.1998 38.8315C25.2645 38.8964 25.3515 38.9339 25.4429 38.9362ZM32.0405 27.3081C32.9562 27.3081 33.8513 27.5809 34.6127 28.092C35.3741 28.603 35.9675 29.3295 36.3179 30.1794C36.6683 31.0293 36.76 31.9645 36.5814 32.8667C36.4027 33.769 35.9618 34.5977 35.3143 35.2482C34.6668 35.8987 33.8418 36.3417 32.9437 36.5212C32.0456 36.7007 31.1147 36.6085 30.2687 36.2565C29.4227 35.9045 28.6996 35.3083 28.1909 34.5434C27.6821 33.7785 27.4106 32.8793 27.4106 31.9593C27.4104 31.3485 27.53 30.7436 27.7627 30.1792C27.9953 29.6148 28.3363 29.102 28.7663 28.67C29.1962 28.2381 29.7067 27.8955 30.2685 27.6618C30.8303 27.4281 31.4324 27.3079 32.0405 27.3081Z" fill="#441D00"/>
<path d="M44.7726 15.68H41.277C41.2886 15.7962 41.3002 15.9126 41.3002 16.0288V22.6568H50.5599V21.494C50.5594 19.9522 49.9495 18.4737 48.8643 17.3835C47.779 16.2933 46.3073 15.6806 44.7726 15.68Z" fill="#441D00"/>
<path d="M22.7807 16.0288C22.7807 15.9126 22.7923 15.7962 22.8039 15.68H19.3083C17.7736 15.6806 16.3019 16.2933 15.2167 17.3835C14.1314 18.4737 13.5215 19.9522 13.521 21.494V22.6568H22.7807V16.0288Z" fill="#441D00"/>
<path d="M41.3002 38.5873C41.3002 38.7152 41.2886 38.8314 41.277 38.9593C41.1863 39.5978 40.8695 40.182 40.3848 40.6049C39.9002 41.0277 39.28 41.2609 38.638 41.2617H25.4429C24.8074 41.262 24.1928 41.0334 23.7107 40.6174C23.2286 40.2013 22.911 39.6254 22.8155 38.9942C22.7924 38.8598 22.7808 38.7237 22.7807 38.5873V24.9592L13.521 24.9825H13.4399L13.521 48.32L50.5599 48.2386V24.901L41.3002 24.9243V38.5873ZM40.1427 45.913H23.9382C23.6318 45.912 23.3383 45.7891 23.122 45.5712C22.9056 45.3532 22.7842 45.0579 22.7842 44.7502C22.7842 44.4424 22.9056 44.1471 23.122 43.9291C23.3383 43.7112 23.6318 43.5883 23.9382 43.5873H40.1427C40.295 43.5869 40.4459 43.6166 40.5867 43.6749C40.7276 43.7331 40.8556 43.8187 40.9634 43.9267C41.0713 44.0347 41.1568 44.1631 41.2152 44.3044C41.2736 44.4457 41.3037 44.5972 41.3037 44.7502C41.3037 44.9031 41.2736 45.0546 41.2152 45.1959C41.1568 45.3372 41.0713 45.4656 40.9634 45.5736C40.8556 45.6816 40.7276 45.7672 40.5867 45.8254C40.4459 45.8837 40.295 45.9134 40.1427 45.913Z" fill="#441D00"/>
<path d="M32.0405 34.2849C33.319 34.2849 34.3554 33.2437 34.3554 31.9593C34.3554 30.6749 33.319 29.6337 32.0405 29.6337C30.762 29.6337 29.7255 30.6749 29.7255 31.9593C29.7255 33.2437 30.762 34.2849 32.0405 34.2849Z" fill="#441D00"/>
</svg>
