<svg width="38" height="33" viewBox="0 0 38 33" fill="none" xmlns="http://www.w3.org/2000/svg">
<path d="M12.0029 23.2562H25.1981C25.2895 23.2539 25.3765 23.2164 25.4411 23.1515C25.5058 23.0866 25.5431 22.9991 25.5453 22.9073V0.348828C25.5431 0.257021 25.5058 0.169594 25.4411 0.104657C25.3765 0.0397191 25.2895 0.00224646 25.1981 0H12.0029C11.9116 0.00224646 11.8245 0.0397191 11.7599 0.104657C11.6952 0.169594 11.6579 0.257021 11.6557 0.348828V22.9073C11.6579 22.9991 11.6952 23.0866 11.7599 23.1515C11.8245 23.2164 11.9115 23.2539 12.0029 23.2562ZM18.6005 11.6281C19.5162 11.6281 20.4114 11.9009 21.1727 12.412C21.9341 12.9231 22.5275 13.6495 22.878 14.4994C23.2284 15.3493 23.3201 16.2845 23.1414 17.1867C22.9628 18.089 22.5218 18.9178 21.8743 19.5682C21.2268 20.2187 20.4019 20.6617 19.5038 20.8412C18.6057 21.0207 17.6747 20.9286 16.8287 20.5765C15.9828 20.2245 15.2597 19.6283 14.7509 18.8634C14.2422 18.0985 13.9706 17.1993 13.9706 16.2793C13.9705 15.6685 14.0901 15.0636 14.3227 14.4992C14.5553 13.9348 14.8964 13.422 15.3263 12.99C15.7563 12.5581 16.2667 12.2155 16.8285 11.9818C17.3903 11.7481 17.9925 11.6279 18.6005 11.6281Z" fill="#441D00"/>
<path d="M31.3327 0H27.8371C27.8487 0.116255 27.8603 0.232573 27.8603 0.348828V6.97684H37.12V5.81403C37.1194 4.27223 36.5095 2.79373 35.4243 1.70351C34.3391 0.613288 32.8674 0.00056008 31.3327 0Z" fill="#441D00"/>
<path d="M9.34077 0.348828C9.34077 0.232573 9.35236 0.116255 9.36394 0H5.86837C4.33365 0.000557336 2.86194 0.613284 1.77672 1.70351C0.691504 2.79373 0.0815898 4.27223 0.081035 5.81403V6.97684H9.34077V0.348828Z" fill="#441D00"/>
<path d="M27.8603 22.9073C27.8603 23.0352 27.8487 23.1515 27.8371 23.2794C27.7463 23.9178 27.4296 24.502 26.9449 24.9249C26.4602 25.3477 25.8401 25.5809 25.1981 25.5818H12.003C11.3674 25.5821 10.7529 25.3534 10.2708 24.9374C9.7887 24.5213 9.47108 23.9455 9.37556 23.3142C9.3525 23.1798 9.34087 23.0437 9.34081 22.9073V9.27921L0.081066 9.30248H0L0.081035 32.64L37.12 32.5586V9.22105L27.8603 9.24433V22.9073ZM26.7028 30.233H10.4982C10.1919 30.232 9.89834 30.1091 9.68201 29.8912C9.46569 29.6732 9.34422 29.378 9.34422 29.0702C9.34422 28.7624 9.46569 28.4671 9.68201 28.2492C9.89834 28.0312 10.1919 27.9083 10.4982 27.9073H26.7028C26.8551 27.9069 27.006 27.9366 27.1468 27.9949C27.2876 28.0531 27.4156 28.1387 27.5235 28.2467C27.6313 28.3547 27.7169 28.4831 27.7753 28.6244C27.8337 28.7657 27.8637 28.9172 27.8637 29.0702C27.8637 29.2232 27.8337 29.3746 27.7753 29.5159C27.7169 29.6573 27.6313 29.7856 27.5235 29.8936C27.4156 30.0016 27.2876 30.0872 27.1468 30.1454C27.006 30.2037 26.8551 30.2334 26.7028 30.233Z" fill="#441D00"/>
<path d="M18.6005 18.6049C19.879 18.6049 20.9155 17.5637 20.9155 16.2793C20.9155 14.9949 19.879 13.9537 18.6005 13.9537C17.322 13.9537 16.2856 14.9949 16.2856 16.2793C16.2856 17.5637 17.322 18.6049 18.6005 18.6049Z" fill="#441D00"/>
</svg>
