<svg width="32" height="32" viewBox="0 0 32 32" fill="none" xmlns="http://www.w3.org/2000/svg">
<path d="M5.88137 15.3692L5.95951 15.8426L6.43468 15.7455C9.78504 15.0613 10.2397 11.5454 10.2442 11.5101L10.3268 10.8134L9.64774 11.0165C5.42258 12.2788 5.87616 15.3387 5.88137 15.3692Z" fill="black"/>
<path d="M9.64737 15.3015C5.42257 16.5639 5.87616 19.623 5.88137 19.6539L5.95951 20.1269L6.43468 20.0302C9.78504 19.3464 10.2397 15.8304 10.2442 15.7948L10.3268 15.0981L9.64737 15.3015Z" fill="black"/>
<path d="M9.64737 19.5862C5.42257 20.8489 5.87616 23.9077 5.88137 23.9386L5.95951 24.4116L6.43468 24.3149C9.78504 23.6311 10.2397 20.1151 10.2442 20.0794L10.3268 19.3828L9.64737 19.5862Z" fill="black"/>
<path d="M5.88137 28.2233L5.95951 28.6963L6.43468 28.5995C9.78504 27.9158 10.2397 24.3998 10.2442 24.3641L10.3268 23.6675L9.64774 23.8705C5.42258 25.1332 5.87616 28.1924 5.88137 28.2233Z" fill="black"/>
<path d="M3.89288 15.7455L4.36805 15.8426L4.44582 15.3692C4.45103 15.3387 4.9035 12.2792 0.67945 11.0168L0 10.8138L0.0826057 11.5104C0.0874429 11.5457 0.542518 15.0613 3.89288 15.7455Z" fill="black"/>
<path d="M3.89288 20.0302L4.36805 20.1273L4.44582 19.6539C4.45103 19.623 4.9035 16.5642 0.67945 15.3015L0 15.0985L0.0826057 15.7951C0.0874429 15.8304 0.542518 19.3464 3.89288 20.0302Z" fill="black"/>
<path d="M3.89288 24.3149L4.36805 24.412L4.44582 23.9386C4.45103 23.9077 4.9035 20.8489 0.67945 19.5862L0 19.3832L0.0826057 20.0798C0.0874429 20.1151 0.542518 23.6311 3.89288 24.3149Z" fill="black"/>
<path d="M3.89288 28.5999L4.36805 28.697L4.44582 28.2236C4.45103 28.1927 4.9035 25.1332 0.67945 23.8713L0 23.6682L0.0826057 24.3649C0.0874429 24.4002 0.542518 27.9158 3.89288 28.5999Z" fill="black"/>
<path d="M16.7183 15.3692L16.7965 15.8426L17.2716 15.7455C20.6216 15.0613 21.0771 11.5457 21.0808 11.5101L21.1638 10.8134L20.4847 11.0165C16.2595 12.2788 16.7131 15.3387 16.7183 15.3692Z" fill="black"/>
<path d="M20.4843 15.3015C16.2595 16.5639 16.7131 19.623 16.7183 19.6539L16.7965 20.1273L17.2716 20.0302C20.6216 19.3464 21.0771 15.8304 21.0808 15.7948L21.1638 15.0981L20.4843 15.3015Z" fill="black"/>
<path d="M20.4843 19.5862C16.2595 20.8489 16.7131 23.9077 16.718 23.9386L16.7961 24.412L17.2713 24.3149C20.6213 23.6311 21.0767 20.1151 21.0804 20.0794L21.1634 19.3828L20.4843 19.5862Z" fill="black"/>
<path d="M16.7183 28.2233L16.7965 28.6966L17.2716 28.5995C20.6216 27.9158 21.0771 24.3998 21.0808 24.3641L21.1638 23.6675L20.4847 23.8705C16.2595 25.1332 16.7131 28.1924 16.7183 28.2233Z" fill="black"/>
<path d="M14.7295 15.7455L15.2046 15.8426L15.2828 15.3692C15.288 15.3383 15.7408 12.2788 11.5164 11.0165L10.837 10.8134L10.9196 11.5101C10.924 11.5457 11.3795 15.0613 14.7295 15.7455Z" fill="black"/>
<path d="M14.7295 20.0302L15.2046 20.1273L15.2828 19.6539C15.288 19.623 15.7408 16.5642 11.5164 15.3015L10.837 15.0985L10.9196 15.7951C10.924 15.8304 11.3795 19.3464 14.7295 20.0302Z" fill="black"/>
<path d="M14.7295 24.3149L15.2046 24.412L15.2828 23.9386C15.288 23.9077 15.7408 20.8489 11.5164 19.5862L10.837 19.3832L10.9196 20.0798C10.924 20.1151 11.3795 23.6311 14.7295 24.3149Z" fill="black"/>
<path d="M14.7295 28.5999L15.2046 28.697L15.2828 28.2236C15.288 28.1927 15.7408 25.1336 11.5164 23.8713L10.837 23.6682L10.9196 24.3649C10.924 24.4002 11.3795 27.9158 14.7295 28.5999Z" fill="black"/>
<path d="M27.3149 30.4125H29.3626V29.493H27.3149V11.1868C28.0107 10.5416 28.4011 9.7817 28.4688 8.92138C28.6109 7.10878 27.2602 5.53343 27.2029 5.46722L26.8431 5.05379L26.4918 5.47384C25.4987 6.66041 25.0663 7.83779 25.2062 8.97287C25.348 10.1223 26.0438 10.8855 26.385 11.1971V29.4922H16.4783V11.186C17.1738 10.5412 17.5645 9.78097 17.6318 8.92101C17.774 7.10841 16.4236 5.53343 16.366 5.46685L16.0065 5.05343L15.6549 5.47347C14.6621 6.66005 14.2294 7.83742 14.3697 8.97251C14.5114 10.1219 15.2072 10.8855 15.5481 11.1967V29.4919H5.64137V11.1857C6.33719 10.5409 6.72752 9.7806 6.79524 8.92064C6.93701 7.10805 5.58667 5.53269 5.52899 5.46648L5.16955 5.05306L4.81792 5.4731C3.82516 6.65968 3.39241 7.83706 3.53269 8.97214C3.67446 10.1216 4.37028 10.8851 4.71112 11.1963V29.4915H2.66459V30.411H4.71112V31.0805H0.931732V32H30.9135V31.0805H27.3145L27.3149 30.4125ZM26.3847 30.4125V31.0819H16.4783V30.4125H26.3847ZM5.64137 30.4125H15.5481V31.0819H5.64137V30.4125Z" fill="black"/>
<path d="M27.5549 15.3692L27.6327 15.8426L28.1079 15.7455C31.4582 15.0613 31.9133 11.5454 31.917 11.5101L32 10.8134L31.3209 11.0165C27.0969 12.2788 27.5501 15.3383 27.5549 15.3692Z" fill="black"/>
<path d="M27.5549 19.6539L27.6327 20.1273L28.1079 20.0302C31.4582 19.3464 31.9133 15.8304 31.917 15.7948L32 15.0981L31.3209 15.3011C27.0969 16.5639 27.5501 19.623 27.5549 19.6539Z" fill="black"/>
<path d="M27.5549 23.9386L27.6327 24.412L28.1079 24.3149C31.4582 23.6311 31.9133 20.1151 31.917 20.0794L32 19.3828L31.3209 19.5862C27.0969 20.8489 27.5501 23.9077 27.5549 23.9386Z" fill="black"/>
<path d="M27.5549 28.2233L27.6327 28.6966L28.1079 28.5995C31.4582 27.9158 31.9133 24.3998 31.917 24.3641L32 23.6675L31.3209 23.8705C27.0969 25.1332 27.5501 28.1924 27.5549 28.2233Z" fill="black"/>
<path d="M25.5661 15.7455L26.0412 15.8426L26.119 15.3692C26.1242 15.3383 26.5771 12.2788 22.353 11.0165L21.6739 10.8134L21.7569 11.5101C21.761 11.5454 22.2161 15.0613 25.5661 15.7455Z" fill="black"/>
<path d="M25.5661 20.0302L26.0412 20.1273L26.119 19.6539C26.1242 19.623 26.5771 16.5642 22.353 15.3015L21.6739 15.0985L21.7569 15.7951C21.761 15.8304 22.2161 19.3464 25.5661 20.0302Z" fill="black"/>
<path d="M25.5661 24.3149L26.0412 24.412L26.119 23.9386C26.1242 23.9077 26.5771 20.8489 22.353 19.5862L21.6739 19.3832L21.7569 20.0798C21.761 20.1151 22.2161 23.6311 25.5661 24.3149Z" fill="black"/>
<path d="M25.5661 28.5999L26.0412 28.697L26.119 28.2236C26.1242 28.1927 26.5771 25.1336 22.353 23.8713L21.6739 23.6682L21.7569 24.3649C21.761 24.4002 22.2161 27.9158 25.5661 28.5999Z" fill="black"/>
<path d="M5.62127 0H4.69103V4.11513H5.62127V0Z" fill="black"/>
<path d="M1.01024 5.05747H0.080001V9.96193H1.01024V5.05747Z" fill="black"/>
<path d="M3.12971 1.7931H2.19947V6.43678H3.12971V1.7931Z" fill="black"/>
<path d="M10.2472 5.05747H9.31695V9.96193H10.2472V5.05747Z" fill="black"/>
<path d="M8.12772 1.7931H7.19748V6.43678H8.12772V1.7931Z" fill="black"/>
<path d="M16.4504 0H15.5202V4.11513H16.4504V0Z" fill="black"/>
<path d="M11.8398 5.05747H10.9095V9.96193H11.8398V5.05747Z" fill="black"/>
<path d="M13.9589 1.7931H13.0286V6.43678H13.9589V1.7931Z" fill="black"/>
<path d="M21.0763 5.05747H20.1461V9.96193H21.0763V5.05747Z" fill="black"/>
<path d="M18.9572 1.7931H18.027V6.43678H18.9572V1.7931Z" fill="black"/>
<path d="M27.2874 0H26.3571V4.11513H27.2874V0Z" fill="black"/>
<path d="M22.6767 5.05747H21.7465V9.96193H22.6767V5.05747Z" fill="black"/>
<path d="M24.7958 1.7931H23.8656V6.43678H24.7958V1.7931Z" fill="black"/>
<path d="M31.9133 5.05747H30.9831V9.96193H31.9133V5.05747Z" fill="black"/>
<path d="M29.7942 1.7931H28.864V6.43678H29.7942V1.7931Z" fill="black"/>
</svg>
