<svg width="32" height="30" viewBox="0 0 32 30" fill="none" xmlns="http://www.w3.org/2000/svg">
<path fill-rule="evenodd" clip-rule="evenodd" d="M6.31769 21.1542L8.024 22.8605L1.92638 28.9581C1.68672 29.1978 1.34667 29.2499 1.17069 29.074L0.104263 28.0075C-0.0716902 27.8315 -0.0195705 27.4915 0.22009 27.2518L6.31769 21.1542Z" fill="black"/>
<path d="M10.1756 18.0499C9.91257 18.313 9.91257 18.7396 10.1756 19.0026C10.4387 19.2657 10.8652 19.2657 11.1283 19.0026L28.9809 1.14997C29.244 0.886909 29.244 0.460356 28.9809 0.197294C28.7179 -0.0657647 28.2913 -0.0657647 28.0283 0.197294L10.1756 18.0499Z" fill="black"/>
<path d="M6.77845 22.3998C7.8988 23.5201 9.71524 23.5201 10.8356 22.3998C11.9559 21.2794 11.9559 19.463 10.8356 18.3426C9.71524 17.2223 7.8988 17.2223 6.77845 18.3426C5.6581 19.463 5.6581 21.2794 6.77845 22.3998Z" fill="black"/>
<path d="M13.1991 22.822C13.3812 22.6399 13.3812 22.3447 13.1991 22.1626C13.017 21.9805 12.7217 21.9805 12.5397 22.1626L10.5751 24.1271C10.393 24.3092 10.393 24.6045 10.5751 24.7866C10.7572 24.9687 11.0524 24.9687 11.2345 24.7866L13.1991 22.822Z" fill="black"/>
<path d="M11.5966 23.6786C11.7331 23.8152 11.9546 23.8152 12.0912 23.6786C12.2277 23.5421 12.2277 23.3206 12.0912 23.1841L10.7896 21.8825C10.6531 21.7459 10.4316 21.7459 10.295 21.8825C10.1585 22.0191 10.1585 22.2405 10.295 22.3771L11.5966 23.6786Z" fill="black"/>
<path d="M28.4306 1.03053C28.403 0.846699 28.2316 0.720031 28.0477 0.747632C27.8639 0.775233 27.7372 0.946711 27.7648 1.13055L30.5007 19.3479C30.4994 19.348 30.767 21.3691 30.7832 21.5479L30.1915 21.0911L30.4263 21.0306C30.1674 20.986 29.9085 20.9413 29.6496 20.8967C30.4983 22.5995 31.0331 22.6456 31.2889 22.0738C31.4997 21.6023 31.3052 20.5235 31.1642 19.2329L28.4306 1.03053Z" fill="black"/>
<path d="M31.7313 18.9317C31.913 18.8946 32.0302 18.7173 31.9932 18.5356C31.9561 18.3539 31.7788 18.2367 31.5971 18.2738L29.7285 18.6546C29.5468 18.6917 29.4296 18.869 29.4666 19.0507C29.5037 19.2323 29.681 19.3496 29.8627 19.3125L31.7313 18.9317Z" fill="black"/>
<path d="M28.4785 1.22425C28.48 1.24484 29.1047 8.42329 22.2492 7.20276L22.3649 6.53958C28.3578 7.60651 27.8088 1.29233 27.8074 1.27422L28.4785 1.22425Z" fill="black"/>
<path d="M16.7102 12.3714C16.7283 12.3728 23.0424 12.9219 21.9755 6.92902L22.6387 6.81324C23.8592 13.6688 16.6808 13.0441 16.6602 13.0425L16.7102 12.3714Z" fill="black"/>
<path d="M17.0207 12.682C17.0223 12.7026 17.647 19.881 10.7914 18.6605L10.9072 17.9973C16.9001 19.0642 16.351 12.7501 16.3496 12.732L17.0207 12.682Z" fill="black"/>
</svg>
