<svg width="32" height="13" viewBox="0 0 32 13" fill="none" xmlns="http://www.w3.org/2000/svg">
<path d="M31.9989 4.68894C32.0118 4.46051 31.9142 4.23852 31.7362 4.09375C31.5582 3.94897 31.3212 3.89749 31.0992 3.9554C29.7672 4.30609 27.1891 4.91629 25.5623 4.85624C23.7692 4.78975 18.0371 3.75593 18.0371 1.26041C18.0371 0.120424 17.2864 0.0249782 17.2864 0.0249782C15.7807 -0.245272 14.363 1.75479 13.7431 2.29315C13.4235 2.57198 13.0203 2.8358 12.4101 2.88834C10.6609 2.98915 0 5.35813 0 8.68264C0 12.2935 12.2042 13.1214 16.3544 11.2876C18.5529 10.317 21.9771 12.3224 23.4378 12.2753C23.4378 12.2753 24.4298 9.80332 22.8683 8.96147C25.8604 8.46387 27.3371 9.61243 30.0428 11.5396C30.2616 11.6961 30.549 11.7165 30.7871 11.5932C31.0262 11.4709 31.1764 11.2243 31.1764 10.9562C31.1775 9.15236 30.3367 8.66762 30.3367 8.09066C30.3378 6.84022 31.8831 6.78981 31.9989 4.68894ZM4.17065 9.10946C3.71809 9.10946 3.3481 8.73626 3.3481 8.27512C3.3481 7.81398 3.71809 7.44185 4.17065 7.44185C4.62536 7.44185 4.99105 7.81505 4.99105 8.27512C4.98998 8.73626 4.62536 9.10946 4.17065 9.10946Z" fill="black"/>
</svg>
