<svg width="36" height="41" viewBox="0 0 36 41" fill="none" xmlns="http://www.w3.org/2000/svg">
<path fill-rule="evenodd" clip-rule="evenodd" d="M10.9794 0C10.535 0 10.2684 0.178475 10.0018 0.401569C9.82403 0.580044 9.55741 1.02623 9.55741 1.33856C9.55741 2.98946 9.15747 4.7742 11.1127 4.95268V12.4932H1.46974C-0.752141 12.4932 -0.130013 16.6428 1.20312 18.0706C2.04743 19.0076 3.33613 19.6769 4.7137 19.6769V35.8735C3.29169 35.8735 2.26962 36.4535 1.33643 37.3459C0.40324 38.2829 0.047738 39.6214 0.047738 40.96H35.509C35.509 39.3537 35.2424 38.3275 34.087 37.1674C33.4649 36.5427 32.1762 35.8735 30.8875 35.8735V19.6769C33.4649 19.6322 35.509 17.5798 35.509 15.0811C35.509 14.1888 35.7312 12.4932 34.1759 12.4932H24.4885V4.95268C26.3549 4.7742 26.0882 3.03407 26.0882 1.69551C26.0882 1.16009 25.9105 0.758519 25.6439 0.490806C25.4661 0.223094 25.0217 0 24.5774 0H10.9794ZM10.0462 19.6769H25.555V33.6871H21.1556C24.1855 30.5377 20.7392 29.0487 20.3113 27.3959C20.1336 26.8159 20.1336 24.9419 19.1115 26.6374C18.9338 26.9497 18.8449 27.2174 18.756 27.5744C18.5338 28.3775 18.5338 29.136 18.7116 29.8946C18.1339 29.7607 17.4673 29.0022 17.4673 28.1544C17.4673 26.9943 18.2672 26.6374 18.4005 25.4773C18.4449 24.808 18.4449 24.5849 18.3561 23.9156C18.2672 23.4248 18.1339 22.8448 17.8228 22.6217C17.4229 22.8894 17.6451 23.5587 16.9785 24.7634C16.3119 26.0127 13.779 27.4851 13.779 30.5638C13.779 31.9916 14.3122 32.9732 15.1566 33.6871H10.0462V19.6769Z" fill="#FF881A"/>
</svg>
