<svg width="64" height="64" viewBox="0 0 64 64" fill="none" xmlns="http://www.w3.org/2000/svg">
<rect x="2.5" y="2.5" width="59" height="59" rx="2.5" fill="#FFD0A5" stroke="#FF881A" stroke-width="5"/>
<path fill-rule="evenodd" clip-rule="evenodd" d="M25.0595 11.52C24.6151 11.52 24.3485 11.6985 24.0819 11.9216C23.9041 12.1 23.6375 12.5462 23.6375 12.8586C23.6375 14.5095 23.2375 16.2942 25.1928 16.4727V24.0133H15.5498C13.3279 24.0133 13.9501 28.1628 15.2832 29.5906C16.1275 30.5276 17.4162 31.1969 18.7938 31.1969V47.3935C17.3718 47.3935 16.3497 47.9735 15.4165 48.8659C14.4833 49.8029 14.1278 51.1414 14.1278 52.48H49.5891C49.5891 50.8737 49.3225 49.8475 48.1671 48.6874C47.545 48.0628 46.2563 47.3935 44.9676 47.3935V31.1969C47.545 31.1522 49.5891 29.0998 49.5891 26.6011C49.5891 25.7088 49.8113 24.0133 48.256 24.0133H38.5686V16.4727C40.4349 16.2942 40.1683 14.5541 40.1683 13.2155C40.1683 12.6801 39.9906 12.2785 39.7239 12.0108C39.5462 11.7431 39.1018 11.52 38.6574 11.52H25.0595ZM24.1263 31.1969H39.6351V45.2072H35.2357C38.2656 42.0577 34.8193 40.5687 34.3914 38.9159C34.2137 38.3359 34.2137 36.4619 33.1916 38.1574C33.0138 38.4697 32.925 38.7374 32.8361 39.0944C32.6139 39.8975 32.6139 40.656 32.7917 41.4146C32.214 41.2807 31.5474 40.5222 31.5474 39.6744C31.5474 38.5143 32.3473 38.1574 32.4806 36.9973C32.525 36.328 32.525 36.1049 32.4361 35.4356C32.3473 34.9448 32.214 34.3648 31.9029 34.1417C31.503 34.4094 31.7251 35.0787 31.0586 36.2834C30.392 37.5327 27.8591 39.0051 27.8591 42.0838C27.8591 43.5116 28.3923 44.4933 29.2366 45.2072H24.1263V31.1969Z" fill="#FF881A"/>
</svg>
