<svg width="20" height="32" viewBox="0 0 20 32" fill="none" xmlns="http://www.w3.org/2000/svg">
<path d="M0.000293416 24.219L0.000244141 7.78096L9.79697 0L19.5937 7.78095L19.5937 24.219L9.79701 32L0.000293416 24.219Z" fill="url(#paint0_linear)"/>
<path d="M3.75556 21.0687L9.7972 25.8672L9.7972 32L0.000488281 24.2191L3.75556 21.0687Z" fill="#FF7E15"/>
<path d="M15.8387 21.0687L19.5938 24.2191L9.79713 32L9.79712 25.8672L15.8387 21.0687Z" fill="#FFB244"/>
<path d="M15.8386 16.0001V21.069L19.5942 24.2188L19.5934 16.0001H15.8386Z" fill="#FFCC44"/>
<path d="M9.79712 0L9.79713 6.13279L15.8387 10.9313L19.5938 7.78095L9.79712 0Z" fill="#FF9718"/>
<path d="M0.000244141 7.78096L3.75533 10.9313L9.79698 6.13279L9.79697 0L0.000244141 7.78096Z" fill="#FFDA3F"/>
<path d="M15.8386 16.0002V10.9312L19.5942 7.78137L19.5934 16.0002H15.8386Z" fill="#FFB346"/>
<path d="M3.75561 16.0002V21.0692L0 24.219L0.000849999 16.0002H3.75561Z" fill="#FF9F36"/>
<path d="M3.75561 16.0002V10.9313L0 7.78143L0.000856158 16.0002H3.75561Z" fill="#FFC63A"/>
<path opacity="0.3" d="M3.75565 21.0687L3.75562 10.9313L9.79726 6.13281L15.8389 10.9313L15.8389 21.0687L9.79729 25.8672L3.75565 21.0687Z" stroke="white" stroke-width="0.799996"/>
<defs>
<linearGradient id="paint0_linear" x1="0.000244136" y1="16" x2="9.79698" y2="6.1328" gradientUnits="userSpaceOnUse">
<stop stop-color="#FEC142"/>
<stop offset="1" stop-color="#FEE736"/>
</linearGradient>
</defs>
</svg>
