<svg width="29" height="32" viewBox="0 0 29 32" fill="none" xmlns="http://www.w3.org/2000/svg">
<path fill-rule="evenodd" clip-rule="evenodd" d="M27.8363 8.65302C26.727 6.54524 24.8411 3.54996 24.1754 2.99528C23.6208 2.66247 22.9551 2.21872 22.7333 2.10779L21.513 4.10464C22.2895 5.54681 22.9551 6.98898 23.6208 8.43115L27.8363 8.65302Z" fill="black"/>
<path fill-rule="evenodd" clip-rule="evenodd" d="M28.6129 10.2061C28.502 9.87332 28.2801 9.42958 28.0582 8.98583L23.8426 8.76396L24.2864 9.65145L28.6129 10.2061Z" fill="black"/>
<path fill-rule="evenodd" clip-rule="evenodd" d="M17.963 2.55153C17.0755 3.9937 14.1911 8.32021 13.5255 9.98426C12.638 12.092 0.102219 29.8418 0.102219 29.8418C-0.563398 30.8403 2.21001 32.8371 2.98656 31.6168C2.98656 31.6168 15.1895 12.3139 16.077 11.2046C18.1848 8.87489 19.5161 6.65617 21.0692 3.9937C20.6254 3.43902 20.0707 2.7734 19.5161 2.21872C19.2942 2.21872 18.2958 2.44059 17.963 2.55153Z" fill="black"/>
<path fill-rule="evenodd" clip-rule="evenodd" d="M19.7381 0.110936L18.185 2.21872C18.185 2.21872 19.5162 1.77498 19.7381 1.99685C19.96 2.21872 21.4021 3.88277 21.4021 3.88277L22.5115 1.99685C22.5115 1.99685 21.1803 0.110936 20.8474 0C20.4037 0 19.7381 0.110936 19.7381 0.110936Z" fill="black"/>
</svg>
