<svg width="64" height="64" viewBox="0 0 64 64" fill="none" xmlns="http://www.w3.org/2000/svg">
<rect x="2.5" y="2.5" width="59" height="59" rx="2.5" fill="#A6D4FF" stroke="#1A91FF" stroke-width="5"/>
<path d="M24.866 42.0315C25.3915 42.56 25.3915 43.4137 24.866 43.9422L23.9107 44.8976C23.3821 45.423 22.5285 45.423 21.9999 44.8976C22.5253 45.4262 22.5253 46.2798 21.9999 46.8084L21.0445 47.7638C20.516 48.2892 19.6623 48.2892 19.1338 47.7638L16.2676 44.8976C15.7422 44.3691 15.7422 43.5154 16.2676 42.9869L17.223 42.0315C17.7516 41.5061 18.6052 41.5061 19.1338 42.0315C18.6083 41.5029 18.6083 40.6493 19.1338 40.1207L20.0891 39.1653C20.6177 38.6399 21.4713 38.6399 21.9999 39.1653C21.4745 38.6368 21.4745 37.7831 21.9999 37.2546L22.9553 36.2992C23.4838 35.7738 24.3375 35.7738 24.866 36.2992L27.7322 39.1653C28.2576 39.6939 28.2576 40.5475 27.7322 41.0761L26.7768 42.0315C26.2482 42.5569 25.3946 42.5569 24.866 42.0315Z" fill="#1A91FF"/>
<path d="M37.286 28.6562L35.3752 26.7454C35.1114 26.4816 34.6837 26.4816 34.4198 26.7454L26.2991 34.8661C26.0353 35.13 26.0353 35.5577 26.2991 35.8215L28.2099 37.7323C28.4737 37.9961 28.9014 37.9961 29.1653 37.7323L37.286 29.6116C37.5498 29.3477 37.5498 28.92 37.286 28.6562Z" fill="#1A91FF"/>
<path d="M46.6009 20.8985C46.0707 20.2918 45.5166 19.6899 44.929 19.1024C44.3415 18.5148 43.7396 17.9607 43.1329 17.4305C44.1486 16.8071 45.4492 16.9033 46.3621 17.6693C47.1281 18.5822 47.2243 19.8828 46.6009 20.8985Z" fill="#1A91FF"/>
<path d="M41.0884 26.7645L39.6744 28.1785C39.4106 28.4423 38.9829 28.4423 38.7191 28.1785L35.8529 25.3123C35.5891 25.0485 35.5891 24.6208 35.8529 24.357L37.2669 22.943C37.9022 23.5497 38.5471 24.185 39.1967 24.8347C39.8464 25.4843 40.4817 26.1292 41.0884 26.7645Z" fill="#1A91FF"/>
<path d="M53.6583 37.5632C52.3948 33.4737 50.0102 26.0943 43.9736 20.0578C37.9371 14.0212 30.5577 11.6366 26.4682 10.3731C26.1522 10.2752 25.8117 10.4205 25.6639 10.7165C25.5161 11.0125 25.6044 11.372 25.8725 11.5659C30.9334 15.3078 35.7066 19.4238 40.1521 23.8793C44.6076 28.3248 48.7236 33.098 52.4655 38.1589C52.6594 38.427 53.0189 38.5153 53.3149 38.3675C53.6109 38.2197 53.7562 37.8792 53.6583 37.5632ZM42.0629 22.9239L41.1075 21.9685C40.8437 21.7047 40.8437 21.277 41.1075 21.0131C41.3713 20.7493 41.7991 20.7493 42.0629 21.0131L43.0183 21.9685C43.2821 22.2323 43.2821 22.6601 43.0183 22.9239C42.7544 23.1877 42.3267 23.1877 42.0629 22.9239Z" fill="#1A91FF"/>
</svg>
