<svg width="64" height="64" viewBox="0 0 64 64" fill="none" xmlns="http://www.w3.org/2000/svg">
<path d="M13.4419 48.532C12.8174 51.2615 12.202 54.5059 11.66 58.3228C11.2714 61.0611 13.2796 63.5824 16.1458 63.954C16.3841 63.985 16.6213 64 16.8554 64C19.4357 64.0003 21.6832 62.1785 22.039 59.6677C22.5449 56.1035 23.1131 53.1238 23.674 50.6693C23.7942 50.1438 23.5025 49.6402 22.9518 49.1888C21.2291 47.7771 16.9636 46.8829 14.7674 47.4689C14.0578 47.6578 13.5634 48.0011 13.4419 48.532ZM17.3087 54.9595L13.6744 54.4999L13.858 53.1771L17.4922 53.6365L17.3087 54.9595ZM18.2825 49.986L18.0845 51.3068L14.5736 50.8271L14.4553 50.8111L14.6532 49.4898L18.2825 49.986Z" fill="black"/>
<path d="M29.2062 49.1885C28.6552 49.6397 28.3635 50.1436 28.4837 50.669C29.0451 53.1235 29.6131 56.1032 30.1187 59.6674C30.4746 62.1783 32.7221 64 35.3026 63.9998C35.5367 63.9998 35.7737 63.9847 36.0122 63.9537C38.8785 63.5824 40.8863 61.0611 40.4977 58.3226C39.9562 54.5057 39.3404 51.2612 38.7158 48.5317C38.5943 48.0008 38.1 47.6575 37.3906 47.4684C35.1942 46.8824 30.9289 47.7769 29.2062 49.1885ZM38.4831 54.4999L34.8488 54.9595L34.6655 53.6365L38.2998 53.1771L38.4831 54.4999ZM37.5043 49.49L37.702 50.8111L34.0727 51.3068L33.875 49.986L37.5043 49.49Z" fill="black"/>
<path d="M18.5559 36.6457C18.5244 36.695 18.4901 36.7415 18.4606 36.7923C18.26 37.1391 16.6103 40.1163 14.902 46.9237C15.339 46.8334 15.8397 46.7853 16.4035 46.7853C18.5881 46.7853 21.5161 47.5159 23.0851 48.6541C23.7824 45.8961 24.4454 43.9237 24.9432 42.6264C25.2433 41.8445 25.4834 41.307 25.6348 40.9883C25.7105 40.8294 25.7639 40.7246 25.7916 40.672C25.7984 40.6593 25.8037 40.6495 25.8073 40.6425C25.9178 40.4483 26.005 40.2484 26.0791 40.0465C26.1517 40.2447 26.2365 40.4406 26.3441 40.6307C26.3444 40.6315 26.3454 40.6335 26.3475 40.6367C26.4224 40.7754 27.6783 43.1391 29.0732 48.6536C30.6422 47.5154 33.5699 46.7851 35.7543 46.7851C36.3181 46.7851 36.8187 46.8331 37.2558 46.9234C35.5472 40.1161 33.898 37.1386 33.6975 36.7916C33.6165 36.6517 33.5262 36.5204 33.4312 36.3937L34.9381 28.5155L29.4471 31.2978L18.5559 36.6457Z" fill="black"/>
<path d="M26.0791 19.7575C28.4568 19.7575 30.5461 19.2651 31.7511 17.9871C32.4382 17.2582 32.8386 16.2752 32.8386 14.9798C32.8386 13.639 32.4107 12.1558 31.6786 10.8269C30.3088 11.0586 27.8168 11.4352 26.0791 11.4352C24.3415 11.4352 21.8492 11.0586 20.4794 10.8269C19.7473 12.156 19.3194 13.639 19.3194 14.9798C19.3194 16.2752 19.7201 17.2585 20.4072 17.9871C21.6119 19.2651 23.7015 19.7575 26.0791 19.7575ZM28.0032 14.0231C28.0032 14.0231 29.2677 16.2822 28.9286 17.8497C28.6141 17.7429 28.1111 17.6563 27.4963 17.603C27.6406 16.942 28.0805 14.834 28.0032 14.0231ZM26.5733 15.9076C26.5733 15.9076 27.0708 16.7966 27.0936 17.5735C26.8595 17.5597 26.6138 17.5507 26.3591 17.5467C26.4567 17.0723 26.607 16.2594 26.5733 15.9076ZM25.5848 15.9076C25.551 16.2594 25.7015 17.0723 25.799 17.5467C25.5442 17.5507 25.2986 17.5597 25.0645 17.5735C25.0872 16.7966 25.5848 15.9076 25.5848 15.9076ZM24.1548 14.0231C24.0778 14.834 24.5175 16.942 24.6617 17.6028C24.0469 17.6561 23.5436 17.7426 23.2294 17.8495C22.8903 16.2819 24.1548 14.0231 24.1548 14.0231Z" fill="black"/>
<path d="M26.0791 10.9348C27.6937 10.9348 30.0216 10.5935 31.4055 10.3638C31.6186 10.3285 31.8085 10.296 31.9708 10.2675C32.3426 10.2024 32.5668 10.1596 32.5668 10.1596C32.5668 10.1596 32.4395 9.78957 32.1764 9.23711C39.1759 7.20169 35.4503 0 35.4503 0C34.8787 5.09795 31.5338 5.78877 29.6076 5.75274C28.6712 4.96634 27.501 4.39112 26.0789 4.39112C24.6568 4.39112 23.4868 4.96659 22.5502 5.75274C20.6245 5.78877 17.2791 5.09795 16.708 0C16.708 0 12.9821 7.20169 19.9817 9.23711C19.7188 9.78957 19.5915 10.1596 19.5915 10.1596C19.5915 10.1596 19.8156 10.2024 20.1875 10.2675C20.3498 10.2957 20.5397 10.3285 20.7525 10.3638C22.1364 10.5935 24.4643 10.9348 26.0791 10.9348Z" fill="black"/>
<path d="M11.5922 39.5026C11.3151 39.2038 11.0928 38.8545 10.9446 38.4657C10.6749 37.7584 10.4364 37.0703 10.2248 36.3983L0 41.7419L1.50565 44.4551L11.5922 39.5026Z" fill="black"/>
<path d="M29.2017 30.8562L40.2896 25.2381C40.3467 24.7314 40.4017 24.1101 40.4174 23.4999C40.4187 23.4506 40.4255 23.4028 40.4291 23.354C40.5577 21.6508 42.0162 20.338 43.8186 20.338C43.8513 20.338 43.8848 20.3385 43.9183 20.3398C45.137 20.3733 46.1862 21.0203 46.7592 21.9599L50.727 19.9494L51.6998 21.4116L52.5668 20.9725L53.3649 22.4105C55.1327 25.5956 54.2348 29.6782 51.6647 31.8875C55.3065 35.0301 64 31.6829 64 31.6829L56.1039 17.4554C57.1932 16.8154 57.5907 15.47 56.9829 14.3751C56.3754 13.2804 54.9868 12.8398 53.8213 13.3425L53.2751 12.3579L52.3877 12.8076L50.777 9.49583L46.6908 11.5663L48.6565 14.6984L47.5918 15.2378L48.5651 16.7L27.3195 27.4644L16.3694 33.1874C16.6106 34.1479 16.9316 35.164 17.3417 36.2381C17.3898 36.3647 17.4268 36.4933 17.4582 36.6224L29.2017 30.8562Z" fill="black"/>
<path d="M41.7971 32.3034C42.7196 32.3034 43.73 31.9015 44.3813 31.3168C45.3983 30.4093 45.8183 29.3727 46.1509 28.1807C46.4669 26.9755 46.6403 25.5348 46.6989 23.6705C46.7099 23.3102 46.6455 22.9649 46.5232 22.6457C46.4627 22.4875 46.3868 22.3367 46.298 22.1933C45.8115 21.4071 44.9291 20.868 43.9031 20.8394C42.3132 20.7956 40.9864 21.9916 40.9408 23.5116C40.9353 23.7253 40.9272 23.928 40.9172 24.1241C40.9023 24.4194 40.8829 24.6934 40.8599 24.9488C40.8408 25.1622 40.8196 25.3617 40.7963 25.5473C40.7334 26.0515 40.6585 26.4566 40.5855 26.7561C40.46 26.7836 40.3375 26.8214 40.2173 26.8644C40.1676 26.5504 40.1387 26.358 40.1387 26.358C40.1387 26.358 40.1715 26.1603 40.2147 25.8423L36.4307 27.7596C36.6202 28.1112 36.813 28.4892 37.008 28.8996C37.2835 29.4713 37.6313 29.9935 38.0974 30.5162C38.5593 31.0158 39.1131 31.5287 39.9974 31.9268C40.0207 31.9373 40.0424 31.9496 40.066 31.9596C40.4331 32.1137 40.874 32.2381 41.3716 32.2824C41.4907 32.2929 41.6101 32.3031 41.7358 32.3031C41.7562 32.3034 41.7766 32.3034 41.7971 32.3034Z" fill="black"/>
<path d="M10.6961 36.152C10.9103 36.8431 11.1554 37.556 11.4369 38.2946C11.5801 38.6699 11.8011 38.9959 12.0748 39.2654C12.207 39.3957 12.3508 39.5141 12.5058 39.6162C12.9829 39.9307 13.5545 40.1051 14.1439 40.1051C14.4715 40.1051 14.8046 40.0513 15.1298 39.9379C16.2827 39.5363 17.001 38.5047 17.0212 37.3991C17.0246 37.2202 17.0094 37.0398 16.9745 36.8596C16.9457 36.709 16.9065 36.5584 16.8499 36.4098C16.4372 35.3286 16.1241 34.3401 15.8915 33.4368C15.8475 33.2654 15.8056 33.0965 15.7671 32.9311C15.4545 31.5838 15.3296 30.4411 15.3301 29.4846C15.3327 27.9465 15.6394 26.8894 16.0277 26.1103C16.1979 25.7732 16.3896 25.4855 16.5917 25.2305L17.8559 31.8395L27.0679 27.025L38.7127 21.1244C38.1296 20.4866 37.5582 19.9707 37.0088 19.5579C36.0172 18.8063 35.1023 18.4162 34.4165 18.221C34.0913 18.0716 33.7394 17.9866 33.3701 17.9866H32.422C32.3599 18.0674 32.2945 18.1457 32.2261 18.2223C31.8545 18.6399 31.3939 18.9954 30.8477 19.2871C29.6542 19.9247 28.054 20.2574 26.0786 20.2574C23.9437 20.2574 22.2464 19.8689 21.0283 19.1265C20.7604 18.7857 20.4148 18.5108 20.0201 18.3204C19.9191 18.2135 19.8245 18.1019 19.7355 17.9863H18.7879C18.5423 17.9863 18.3048 18.0266 18.0769 18.0947C17.5485 18.2055 15.7153 18.6401 13.7627 20.1524C12.6975 20.9833 11.6178 22.1615 10.8331 23.7288C10.0449 25.2943 9.56676 27.2249 9.56938 29.4831C9.57016 31.3096 9.87365 33.3527 10.5474 35.6584C10.5948 35.822 10.6448 35.9867 10.6961 36.152Z" fill="black"/>
</svg>
