<svg width="32" height="32" viewBox="0 0 32 32" fill="none" xmlns="http://www.w3.org/2000/svg">
<path d="M29.9063 14.7921L31.3868 10.4074L26.5882 4.45924L22.1545 0.586607L15.2725 0.944386L9.6578 0L5.65771 5.49016L5.81154 9.98224L1.65409 13.7892L0 21.8539L4.05195 31.4616L10.6002 29.7487L16.4844 32L22.4152 30.4115L28.2956 30.2576L29.4151 25.4502L32 18.9958L29.9063 14.7921ZM26.2354 4.75237L30.758 10.3592L27.3465 11.0607L23.8615 7.9782L22.4445 1.44548L26.2354 4.75237ZM15.4341 1.38699L21.8842 1.05213L23.3922 8.00487L16.2399 9.57247L11.2597 6.10824L15.4341 1.38699ZM19.4913 23.6216L13.9179 18.6291H22.007L26.4192 24.9723L19.4913 23.6216ZM23.3926 18.1273L29.539 15.09L31.301 18.6291L23.3926 18.1273Z" fill="black"/>
</svg>
