<svg width="47" height="62" viewBox="0 0 47 62" fill="none" xmlns="http://www.w3.org/2000/svg">
<path d="M45.4945 51.2003C36.8471 51.2003 29.7603 38.952 29.3227 23.601H33.3413C35.7902 23.601 37.7835 21.6063 37.7835 19.1533C37.7835 16.7002 35.7912 14.7035 33.3413 14.7035H30.1326C31.5046 13.1422 32.3457 11.1003 32.3457 8.8603C32.3457 3.97522 28.3782 0 23.5015 0C18.6248 0 14.6563 3.97422 14.6563 8.8603C14.6563 11.1003 15.4964 13.1412 16.8704 14.7035H13.6577C11.2098 14.7035 9.21753 16.6992 9.21753 19.1533C9.21753 21.6053 11.2098 23.601 13.6577 23.601H17.6783C17.2397 38.953 10.1539 51.2003 1.50648 51.2003H1.50548C0.67345 51.2003 0 51.876 0 52.7084V60.4919C0 61.3244 0.67345 62 1.50548 62H45.4945C46.3255 62 47 61.3244 47 60.4919V52.7084C47 51.876 46.3255 51.2003 45.4945 51.2003Z" fill="black"/>
</svg>
