<svg width="33" height="33" viewBox="0 0 33 33" fill="none" xmlns="http://www.w3.org/2000/svg">
<path d="M8.43581 27.4396C8.88043 27.8868 8.88043 28.6092 8.43581 29.0565L7.62735 29.865C7.18006 30.3096 6.4577 30.3096 6.01042 29.865C6.45503 30.3122 6.45503 31.0346 6.01042 31.4819L5.20195 32.2903C4.75467 32.735 4.03231 32.735 3.58502 32.2903L1.15963 29.865C0.715017 29.4177 0.715018 28.6953 1.15964 28.248L1.9681 27.4396C2.41538 26.9949 3.13775 26.9949 3.58503 27.4396C3.14041 26.9923 3.14041 26.2699 3.58503 25.8226L4.39349 25.0142C4.84077 24.5696 5.56314 24.5696 6.01042 25.0142C5.5658 24.5669 5.5658 23.8445 6.01042 23.3972L6.81889 22.5888C7.26617 22.1442 7.98853 22.1442 8.43581 22.5888L10.8612 25.0142C11.3058 25.4614 11.3058 26.1838 10.8612 26.6311L10.0527 27.4396C9.60546 27.8842 8.88309 27.8842 8.43581 27.4396Z" fill="black"/>
<path d="M18.9458 16.1211L17.3289 14.5041C17.1057 14.2809 16.7437 14.2809 16.5204 14.5041L9.64851 21.3761C9.42526 21.5993 9.42526 21.9613 9.64851 22.1845L11.2654 23.8015C11.4887 24.0247 11.8506 24.0247 12.0739 23.8015L18.9458 16.9295C19.1691 16.7063 19.1691 16.3443 18.9458 16.1211Z" fill="black"/>
<path d="M26.8284 9.55635C26.3797 9.04297 25.9108 8.53364 25.4136 8.03643C24.9163 7.53923 24.407 7.07032 23.8936 6.62162C24.7531 6.09411 25.8537 6.17551 26.6262 6.82374C27.2745 7.59627 27.3559 8.69685 26.8284 9.55635Z" fill="black"/>
<path d="M22.1635 14.5203L20.967 15.7168C20.7437 15.9401 20.3818 15.9401 20.1585 15.7168L17.7331 13.2914C17.5099 13.0682 17.5099 12.7062 17.7331 12.483L18.9297 11.2865C19.4673 11.7998 20.013 12.3375 20.5628 12.8872C21.1125 13.437 21.6502 13.9827 22.1635 14.5203Z" fill="black"/>
<path d="M32.8005 23.6584C31.7313 20.1977 29.7134 13.9532 24.6051 8.8449C19.4968 3.73662 13.2522 1.71869 9.7916 0.649497C9.52417 0.566641 9.23607 0.689668 9.11098 0.940148C8.98589 1.19063 9.06062 1.49485 9.28753 1.65886C13.5701 4.82534 17.6094 8.3084 21.3712 12.0788C25.1416 15.8406 28.6246 19.8798 31.7911 24.1625C31.9551 24.3894 32.2594 24.4641 32.5098 24.339C32.7603 24.2139 32.8833 23.9258 32.8005 23.6584ZM22.9882 11.2703L22.1797 10.4618C21.9564 10.2386 21.9564 9.87661 22.1797 9.65336C22.4029 9.43011 22.7649 9.43011 22.9882 9.65336L23.7966 10.4618C24.0199 10.6851 24.0199 11.047 23.7966 11.2703C23.5734 11.4935 23.2114 11.4935 22.9882 11.2703Z" fill="black"/>
</svg>
