<svg width="64" height="48" viewBox="0 0 64 48" fill="none" xmlns="http://www.w3.org/2000/svg">
<path fill-rule="evenodd" clip-rule="evenodd" d="M64 48L56.7774 34.0426L55.5737 31.3191L53.5674 28.9362L51.5611 28.5957L47.7492 17.7021L41.3292 18.383L35.7116 8.17021L28.2884 6.80851L24.6771 0L19.2602 8.51064L12.4389 27.234L4.41379 36.766L0 47.6596L6.01881 48L6.21944 40.1702L6.42006 42.2128L12.6395 29.9574L6.62069 44.9362L6.82132 48H12.4389L12.6395 44.9362L17.4545 30.6383L13.2414 48H29.8934L31.4984 42.8936L30.2947 48H35.3103L35.511 47.3191L36.7147 44.2553L34.9091 42.8936L32.7022 28.5957L35.9122 41.5319L38.1191 43.9149L38.721 39.1489V36.766L41.1285 34.383L39.3229 38.1277V41.8723L40.7273 48H45.7429L54.5705 42.5532L55.1724 34.0426L56.5768 38.4681V43.9149L54.7712 45.2766L55.1724 48H64ZM35.9122 48L36.7147 45.9574L38.9216 46.2979L40.326 48H35.9122ZM32.3009 14.9787L30.2947 22.8085H29.0909L30.6959 26.8936L31.0972 31.3191L30.4953 27.9149L28.6897 24.8511L28.489 28.5957L26.0815 38.4681L26.2821 42.2128L28.0878 46.2979L25.6803 43.9149L23.4734 46.2979L25.6803 41.1915L25.279 38.1277L19.4608 45.9574L26.2821 33.0213L27.2853 22.4681L32.3009 14.9787ZM54.7712 48L53.9687 45.617L52.9655 46.6383L52.5643 48H54.7712ZM52.3636 48L52.9655 45.2766L47.1473 48H52.3636ZM24.6771 3.06383L27.4859 8.85106L26.0815 12.9362L24.6771 22.8085L23.8746 13.9574L23.674 9.87234L24.6771 3.06383ZM47.1473 19.7447L50.3574 28.9362L46.9467 26.5532L46.5455 35.7447L43.3354 43.9149L45.7429 35.4043L44.5392 32L44.9404 27.9149L46.9467 24.5106L47.1473 19.7447ZM35.7116 10.8936L37.3166 14.2979L37.5172 18.0426L38.3197 16.3404L39.9248 19.4043L36.9154 21.4468L34.9091 30.9787L35.511 21.4468L34.9091 16.3404L35.7116 10.8936Z" fill="black"/>
</svg>
