<svg width="31" height="30" viewBox="0 0 31 30" fill="none" xmlns="http://www.w3.org/2000/svg">
<path d="M0.53368 29.1104C1.07 29.4672 1.83352 29.3082 2.18584 28.7773L7.81816 20.305V20.3037L9.48632 17.8109L20.1084 1.86176C20.4745 1.31136 20.3263 0.56672 19.7778 0.20064C19.5798 0.06912 19.3516 0 19.1164 0C18.7138 0 18.3407 0.19936 18.1183 0.5344L0.2012 27.4499C0.0232804 27.7162 -0.0391196 28.0358 0.0239204 28.3491C0.0863204 28.6627 0.26776 28.9334 0.53368 29.1104Z" fill="black"/>
<path d="M29.9496 19.577C31.4344 10.319 24.7403 3.9152 21.4904 1.4032C21.4575 1.79168 21.3403 2.17824 21.1099 2.52512L18.6155 6.272C25.1947 10.5069 28.5861 16.5587 29.9496 19.577Z" fill="black"/>
<path d="M9.16395 20.4688L11.5313 22.0454C11.8654 22.2666 12.3489 22.1683 12.5691 21.8371L12.7355 21.5878C12.964 21.2445 12.8705 20.7789 12.5278 20.5494L10.1598 18.9738L9.16395 20.4688Z" fill="black"/>
</svg>
