<svg width="26" height="32" viewBox="0 0 26 32" fill="none" xmlns="http://www.w3.org/2000/svg">
<path d="M10.9662 12.1082C14.0804 13.6738 12.2947 20.0988 11.0066 22.6611C9.4626 25.7324 4.58052 28.1325 1.06558 26.3652C-2.52797 24.5587 3.51934 8.36439 10.9662 12.1082ZM24.1261 0.559748C27.2402 2.12537 25.4545 8.5503 24.1664 11.1125C22.6224 14.1838 17.7404 16.584 14.2253 14.8168C10.6318 13.0102 16.6791 -3.18395 24.1261 0.559748ZM18.8903 4.5551C18.6624 4.44044 17.171 6.93279 17.0559 7.16197C16.9407 7.39086 15.8297 10.0745 16.0579 10.1892C16.2861 10.3038 17.7772 7.8116 17.8924 7.58243C18.0075 7.35325 19.1186 4.66975 18.8903 4.5551ZM20.9793 17.1423C24.0934 18.7079 22.3078 25.1327 21.0196 27.6949C19.4754 30.7663 14.5936 33.1662 11.0785 31.3993C7.485 29.5926 13.5323 13.3984 20.9793 17.1423ZM15.7435 21.1375C15.5154 21.0228 14.0243 23.5152 13.9089 23.7442C13.7939 23.9733 12.683 26.6568 12.9111 26.7716C13.1393 26.8862 14.6304 24.3939 14.7456 24.1648C14.8607 23.9356 15.9718 21.2521 15.7435 21.1375ZM5.73049 16.1036C5.50245 15.9889 4.01119 18.4813 3.89611 18.7103C3.78089 18.9393 2.66994 21.623 2.89798 21.7376C3.12617 21.8523 4.61728 19.3599 4.73236 19.1309C4.84759 18.9017 5.95854 16.2182 5.73049 16.1036Z" fill="black"/>
</svg>
