<svg width="32" height="36" viewBox="0 0 32 36" fill="none" xmlns="http://www.w3.org/2000/svg">
<path fill-rule="evenodd" clip-rule="evenodd" d="M16.0165 0.00036908C15.8583 -0.00474882 15.7029 0.0434837 15.5754 0.137316C11.245 3.31363 5.8822 4.4009 0.844669 3.39096C0.742243 3.37043 0.636538 3.37289 0.535179 3.39816C0.433819 3.42343 0.339331 3.47088 0.258529 3.53709C0.177726 3.60329 0.112624 3.68661 0.0679178 3.78102C0.0232111 3.87543 1.39839e-05 3.97859 0 4.08305V19.0948C0 27.9274 7.14911 35.0588 16 35.0588C24.8509 35.0588 32 27.9274 32 19.0948V4.08305C32 3.97859 31.9768 3.87543 31.9321 3.78102C31.8874 3.68661 31.8223 3.60329 31.7415 3.53709C31.6607 3.47088 31.5662 3.42343 31.4648 3.39816C31.3635 3.37289 31.2578 3.37043 31.1553 3.39096C26.1133 4.40181 20.7425 3.31945 16.4108 0.137316C16.2962 0.0529666 16.1588 0.00523048 16.0165 0.00036908ZM16 3.86889C16.1421 3.87025 16.2805 3.91445 16.3971 3.99573C19.7469 6.33329 23.78 7.17612 27.6553 6.56831C27.7561 6.55253 27.859 6.55875 27.9571 6.58655C28.0552 6.61435 28.1461 6.66308 28.2236 6.72937C28.3011 6.79566 28.3633 6.87795 28.4059 6.97057C28.4485 7.06319 28.4706 7.16395 28.4706 7.26592V18.7483C28.4706 25.6373 22.9049 31.1903 16 31.1903C9.09512 31.1903 3.52941 25.6373 3.52941 18.7483V7.26592C3.52939 7.16395 3.55145 7.06319 3.59408 6.97057C3.63672 6.87795 3.69891 6.79566 3.77639 6.72937C3.85386 6.66308 3.94477 6.61435 4.04287 6.58655C4.14097 6.55875 4.24393 6.55253 4.34467 6.56831C8.216 7.17493 12.2421 6.32858 15.5901 3.99573C15.7102 3.91194 15.8535 3.86762 16 3.86889ZM15.9936 5.37991C12.6572 7.56964 8.75848 8.42637 4.94118 8.01407V18.7483C4.94118 24.8803 9.84845 29.7785 16 29.7785C22.1516 29.7785 27.0588 24.8803 27.0588 18.7483V8.01407C23.2382 8.42788 19.3332 7.57424 15.9936 5.37991Z" fill="black"/>
</svg>
