<svg width="32" height="32" viewBox="0 0 32 32" fill="none" xmlns="http://www.w3.org/2000/svg">
<path fill-rule="evenodd" clip-rule="evenodd" d="M29.3194 28.0496C23.4555 33.0469 11.2251 33.6918 4.35602 27.7272C5.86387 26.9212 7.37173 26.1151 10.0524 26.2763C11.0576 25.3091 12.5654 24.6643 14.911 24.9867C16.5864 15.9593 11.8953 12.0903 7.87435 11.2843C9.71728 12.2515 12.3979 13.8636 13.2356 17.8937C2.68063 18.6997 1.84293 13.2188 0 8.22143C7.20419 6.77059 12.5654 8.06023 15.7487 13.2188C16.5864 1.28964 24.9634 0.322409 32 0C30.8272 5.31975 31.1623 13.8636 19.9372 15.1532C20.1047 11.4455 21.7801 8.06023 25.9686 4.99734C17.5916 7.25421 16.9215 18.6997 18.4293 24.9867C20.2723 24.9867 21.445 24.9867 22.6178 26.2763C25.801 25.9539 28.4817 27.2436 29.3194 28.0496Z" fill="black"/>
</svg>
