<svg width="32" height="23" viewBox="0 0 32 23" fill="none" xmlns="http://www.w3.org/2000/svg">
<path d="M22.5816 9.63256L15.1939 4.07681C14.8572 3.82423 14.4684 3.65008 14.0558 3.5671C13.6431 3.48411 13.2172 3.49439 12.8091 3.59718L6.32735 5.21594C4.85235 5.58523 3.52139 6.38693 2.50533 7.51813C1.48927 8.64933 0.834483 10.0584 0.62504 11.5644L0.0254982 15.7212C-0.0636403 16.3802 0.0825734 17.0495 0.438393 17.6112C0.794213 18.173 1.33682 18.5912 1.97068 18.7922L12.0896 22.123C12.3758 22.2159 12.6748 22.2631 12.9756 22.2629H20.8829C21.254 22.2638 21.6217 22.1913 21.9648 22.0497C22.3079 21.9081 22.6196 21.7 22.8821 21.4376C23.1445 21.1751 23.3525 20.8634 23.4942 20.5203C23.6358 20.1772 23.7083 19.8096 23.7074 19.4384V11.8908C23.7087 11.4527 23.6076 11.0204 23.4121 10.6283C23.2166 10.2362 22.9322 9.89522 22.5816 9.63256Z" fill="black"/>
<path d="M24.4135 1.03913C24.3418 0.91737 24.2455 0.811854 24.1308 0.729284C24.0162 0.646715 23.8856 0.588895 23.7473 0.559496L21.569 0.0732015C21.095 -0.0458193 20.5961 -0.0192257 20.1374 0.149514C19.6787 0.318254 19.2815 0.621306 18.9976 1.01914L18.2782 2.09166C18.1642 2.26913 18.1189 2.48211 18.1508 2.69062C18.1827 2.89913 18.2896 3.08884 18.4514 3.22412L21.116 5.60231C21.1796 5.6813 21.2562 5.74889 21.3425 5.80215L23.7473 6.94128C23.9603 7.05465 24.2096 7.07905 24.4405 7.00914C24.6715 6.93923 24.8654 6.78071 24.9797 6.56823L26.0056 4.46984C26.0639 4.34412 26.0901 4.20594 26.082 4.06761C26.0738 3.92929 26.0316 3.79513 25.959 3.67711L24.4135 1.03913Z" fill="black"/>
<path d="M31.9278 9.92566L31.115 8.54006C31.0659 8.45905 30.9964 8.39239 30.9134 8.34679C30.8303 8.30118 30.7368 8.27823 30.6421 8.28026L28.5503 8.24029C28.4485 8.23802 28.3474 8.25699 28.2534 8.29598C28.1593 8.33498 28.0744 8.39315 28.0041 8.46678L26.865 9.61923C26.6096 9.85941 26.4291 10.1683 26.3452 10.5087C26.2613 10.849 26.2775 11.2064 26.392 11.5378L26.7184 12.3771C26.776 12.5111 26.8824 12.618 27.0161 12.6762C27.1498 12.7343 27.3006 12.7394 27.4379 12.6902L29.8493 11.9574C29.9179 11.9359 29.983 11.9045 30.0425 11.8642L31.6413 10.8183C31.797 10.7373 31.9145 10.5981 31.9681 10.4309C32.0218 10.2638 32.0073 10.0822 31.9278 9.92566Z" fill="black"/>
</svg>
