<svg width="29" height="35" viewBox="0 0 29 35" fill="none" xmlns="http://www.w3.org/2000/svg">
<path d="M17.8512 4.19473C17.8376 4.18303 17.8241 4.17189 17.8111 4.1602L17.7958 4.28717L17.8512 4.19473Z" fill="#B03E0E"/>
<path d="M22.8373 0.313741C21.7421 -0.321673 20.3321 0.0386363 19.6873 1.11845L17.8512 4.19473L17.7953 4.28773L17.1894 9.49468L22.1512 5.93502L23.6545 3.41786C24.2981 2.3386 23.9336 0.948599 22.8373 0.313741Z" fill="#B03E0E"/>
<path d="M17.0583 3.54316C15.8693 2.57862 14.4651 2.09467 12.8132 1.53778C12.8132 1.53778 3.58702 -0.621299 4.57542 9.89117C4.57542 11.3134 7.96382 13.3656 10.7742 14.0968L16.2915 10.1396L17.0583 3.54316Z" fill="#B03E0E"/>
<path d="M16.443 17.3819C17.632 18.3465 19.0362 18.8304 20.6881 19.3873C20.6881 19.3873 29.9143 21.5464 28.9259 11.0339C28.9259 9.61166 25.5375 7.55946 22.7271 6.82826L17.2098 10.7855L16.443 17.3819Z" fill="#B03E0E"/>
<path d="M10.5092 26.3195L15.7679 17.1675L16.4528 11.2834L12.0821 14.4182L12.0601 14.4343L10.2873 17.4037C8.53124 19.9152 -0.793326 32.4453 0.0543361 33.8376C0.902103 34.9513 2.87998 35.6448 4.51473 34.116C5.70567 33.0022 6.77522 31.2753 10.5092 26.3195Z" fill="#B03E0E"/>
</svg>
