<svg width="64" height="64" viewBox="0 0 64 64" fill="none" xmlns="http://www.w3.org/2000/svg">
<rect x="2.5" y="2.5" width="59" height="59" rx="2.5" fill="#FFCBB5" stroke="#B03E0E" stroke-width="5"/>
<path d="M34.8512 19.1947C34.8376 19.183 34.8241 19.1719 34.8111 19.1602L34.7958 19.2872L34.8512 19.1947Z" fill="#B03E0E"/>
<path d="M39.8373 15.3137C38.7421 14.6783 37.3321 15.0386 36.6873 16.1185L34.8512 19.1947L34.7953 19.2877L34.1894 24.4947L39.1512 20.935L40.6545 18.4179C41.2981 17.3386 40.9336 15.9486 39.8373 15.3137Z" fill="#B03E0E"/>
<path d="M34.0583 18.5432C32.8693 17.5786 31.4651 17.0947 29.8132 16.5378C29.8132 16.5378 20.587 14.3787 21.5754 24.8912C21.5754 26.3134 24.9638 28.3656 27.7742 29.0968L33.2915 25.1396L34.0583 18.5432Z" fill="#B03E0E"/>
<path d="M33.443 32.3819C34.632 33.3465 36.0362 33.8304 37.6881 34.3873C37.6881 34.3873 46.9143 36.5464 45.9259 26.0339C45.9259 24.6117 42.5375 22.5595 39.7271 21.8283L34.2098 25.7855L33.443 32.3819Z" fill="#B03E0E"/>
<path d="M27.5092 41.3195L32.7679 32.1675L33.4528 26.2834L29.0821 29.4182L29.0601 29.4343L27.2873 32.4037C25.5312 34.9152 16.2067 47.4453 17.0543 48.8376C17.9021 49.9513 19.88 50.6448 21.5147 49.116C22.7057 48.0022 23.7752 46.2753 27.5092 41.3195Z" fill="#B03E0E"/>
</svg>
