<svg width="64" height="48" viewBox="0 0 64 48" fill="none" xmlns="http://www.w3.org/2000/svg">
<path d="M14.3253 38.3259C14.3253 38.3259 8.9863 42.0462 12.4849 44.7005C15.9835 47.3547 24.1582 46.8585 26.1333 45.0568C28.1091 43.2558 27.7781 37.399 24.2267 37.4719C20.6753 37.5448 18.3305 36.3092 14.3253 38.3259Z" fill="black"/>
<path d="M31.6516 38.7343C31.6516 38.7343 27.029 42.3505 29.2414 44.879C31.4537 47.4075 40.6551 46.465 40.8954 44.3672C41.1357 42.2694 40.8916 36.6328 37.4392 37.3804C33.986 38.1295 32.8634 37.6021 31.6516 38.7343Z" fill="black"/>
<path d="M7.06405 45.6036C7.06405 45.6036 11.4151 43.3696 10.0412 40.8173C8.66716 38.2657 1.04585 37.3946 0.502803 39.1338C-0.0402476 40.8731 -0.780433 45.7099 2.1446 45.7018C5.06964 45.6943 5.89314 46.346 7.06405 45.6036Z" fill="black"/>
<path d="M47.6329 47.2655C47.6329 47.2655 42.2232 47.3949 42.2656 44.0354C42.308 40.6759 45.939 37.8803 47.6664 38.1258C49.3937 38.3713 54.0498 39.0594 54.2827 41.893C54.5155 44.7265 53.7515 45.9837 53.1081 46.3624C52.4646 46.741 48.6893 47.3168 47.6329 47.2655Z" fill="black"/>
<path d="M39.6835 29.1253C39.6835 29.1253 33.7516 30.0522 36.1619 33.5739C38.5714 37.0955 44.5963 39.9692 46.7276 36.6321C48.8596 33.2957 48.2102 29.0323 46.0789 29.1246C43.9469 29.2183 42.5253 28.1158 39.6835 29.1253Z" fill="black"/>
<path d="M49.6816 33.9317C49.6816 33.9317 50.979 40.1418 55.8918 38.8437C60.8038 37.5463 63.028 32.7266 60.4333 30.5945C57.8378 28.4625 54.5014 26.5164 52.1841 28.8337C49.8676 31.151 49.3208 32.7593 49.6816 33.9317Z" fill="black"/>
<path d="M30.285 29.2957C30.285 29.2957 22.5923 26.1445 20.1828 30.5008C17.7733 34.8571 20.9245 36.5108 23.241 36.5183C25.5583 36.5249 34.0031 39.1204 34.044 35.0423C34.0849 30.9643 30.285 29.2957 30.285 29.2957Z" fill="black"/>
<path d="M8.3205 28.0816C8.3205 28.0816 1.73992 30.7694 4.61288 34.5692C7.48584 38.3691 9.8961 39.9447 12.0274 38.8325C14.1594 37.7204 17.8663 35.1041 17.7741 33.6319C17.6818 32.1597 17.1254 27.8964 14.2524 28.0816C11.3794 28.2669 12.3056 26.9695 8.3205 28.0816Z" fill="black"/>
<path d="M41.7538 20.8367C41.7538 20.8367 48.0599 17.2221 52.3232 20.8367C56.5866 24.4514 52.9541 27.6955 51.3874 27.8808C49.8207 28.066 42.3073 28.8077 41.7538 27.0469C41.2004 25.286 38.4725 22.0984 41.7538 20.8367Z" fill="black"/>
<path d="M20.0623 19.7432C20.0623 19.7432 13.26 16.592 11.1287 20.9483C8.99746 25.3046 11.7841 26.9583 13.8336 26.9658C15.883 26.9732 23.3504 29.5679 23.3868 25.4899C23.4233 21.4118 20.0623 19.7432 20.0623 19.7432Z" fill="black"/>
<path d="M29.6193 21.2905C29.6193 21.2905 23.488 23.4017 26.7084 26.3736C29.9287 29.3455 36.8694 30.9486 38.5112 27.2388C40.1529 23.5297 38.6651 19.4724 36.4171 19.9954C34.1682 20.5183 32.4506 19.7231 29.6193 21.2905Z" fill="black"/>
<path d="M20.6448 16.5734C20.6448 16.5734 22.7634 10.9487 27.4411 12.2617C32.1188 13.5747 31.5207 17.7956 30.6131 18.5916C29.7048 19.3876 25.2704 23.0789 23.9715 21.8172C22.6727 20.5555 19.2113 18.977 20.6448 16.5734Z" fill="black"/>
<path d="M56.0844 40.4357C56.0844 40.4357 54.4977 43.9967 56.8112 45.5731C59.1248 47.1487 64.5664 44.8775 63.952 43.2223C63.3375 41.5664 61.1274 37.2659 59.2297 38.4219C57.3312 39.5779 56.4333 39.3607 56.0844 40.4357Z" fill="black"/>
<path d="M42.5565 10.9197C42.5565 10.9197 34.4613 9.02872 32.7734 13.7124C31.0855 18.396 34.4591 19.5289 36.7481 19.1682C39.0371 18.8074 47.7869 20.0296 47.1799 15.9969C46.5736 11.9642 42.5565 10.9197 42.5565 10.9197Z" fill="black"/>
<path d="M19.8228 9.4654C19.8228 9.4654 22.3796 12.409 24.7854 10.9778C27.1911 9.54723 27.4329 3.6555 25.6721 3.51267C23.912 3.36984 19.0803 3.55507 19.3258 5.76372C19.5721 7.97312 18.9955 8.69471 19.8228 9.4654Z" fill="black"/>
<path d="M19.8481 12.6121C19.8481 12.6121 18.1021 9.12618 15.4166 9.91472C12.7311 10.7033 11.0343 16.3502 12.7036 16.926C14.3729 17.5018 19.0997 18.5217 19.4099 16.3212C19.7201 14.12 20.4581 13.5643 19.8481 12.6121Z" fill="black"/>
<path d="M29.5047 3.53945C29.5047 3.53945 26.3066 8.46038 29.2198 10.1342C32.1329 11.8072 40.5301 7.92849 40.0763 5.86638C39.6225 3.80428 37.5619 -1.44844 34.5387 0.380083C31.5155 2.2086 30.2828 2.07544 29.5047 3.53945Z" fill="black"/>
</svg>
