<svg width="32" height="27" viewBox="0 0 32 27" fill="none" xmlns="http://www.w3.org/2000/svg">
<path d="M15.9993 0C17.9422 0 20.3836 0.787815 21.9739 1.59046C22.0062 1.60769 22.0407 1.62082 22.0764 1.62902C23.1274 1.84117 24.6426 2.05029 25.8714 2.44993C26.6829 2.74721 27.8813 3.22066 27.8972 4.13014C27.794 5.28115 26.6071 5.15039 25.9484 4.97677C25.6661 4.90805 25.3713 5.22625 25.4612 5.50265C25.7092 6.25549 25.7863 6.79015 25.7561 7.14442C25.7259 7.49873 25.6125 7.68281 25.4099 7.84987C25.0046 8.18403 24.058 8.36329 22.8585 8.70926C22.7716 8.7347 22.6936 8.78971 22.6406 8.86319C22.1252 9.55675 20.9855 10.1412 19.4994 10.5178C18.0134 10.8943 16.2029 11.0821 14.4095 11.0821C12.6161 11.0821 10.838 10.8966 9.39648 10.5691C7.97104 10.2451 6.89823 9.73945 6.49894 9.27363C6.22694 8.77947 6.52458 8.43386 6.781 8.06795C7.09927 7.68492 7.56303 7.2874 7.90925 6.81095C8.3575 7.42894 9.06398 7.97836 9.94779 8.42703C11.4852 9.20769 13.597 9.70969 15.9993 9.70969C18.4015 9.70969 20.5134 9.20769 22.0508 8.42703C23.5882 7.64654 24.615 6.57046 24.615 5.33593C24.615 4.10139 23.5882 3.01255 22.0508 2.23193C20.5134 1.45136 18.4015 0.949294 15.9993 0.949294C13.6067 0.949294 11.5196 1.36375 9.98625 2.10367C8.44543 2.81261 7.45378 3.96736 7.39639 5.57955C7.06753 5.44556 6.72848 5.31734 6.43482 5.16911C5.97972 4.96693 5.83352 4.73768 5.76812 4.30973C5.90191 3.73491 6.47109 2.98013 7.26818 2.38578C8.18497 1.70215 9.36827 1.2314 10.2555 1.2314C10.3182 1.2273 10.3801 1.21047 10.435 1.18007C12.0011 0.389648 14.0017 0 15.9993 0ZM15.9993 1.77005C18.2858 1.77005 20.2859 2.25555 21.679 2.96289C23.0721 3.67011 23.7944 4.58648 23.7944 5.33575C23.7944 6.08506 23.0721 6.98852 21.679 7.69582C20.2859 8.40308 18.2858 8.88863 15.9993 8.88863C13.7127 8.88863 11.7127 8.40308 10.3196 7.69582C8.93383 6.99221 8.21171 6.0956 8.20413 5.34855C8.25718 4.0782 9.50511 3.26518 10.3452 2.84753C12.1051 2.07369 14.3018 1.78166 15.9993 1.77005ZM16.4096 2.05219C14.7187 2.05219 13.238 2.35075 12.1402 2.89874C11.0423 3.44677 10.2893 4.29122 10.2555 5.32296C10.2742 6.35072 11.3543 7.25982 12.1145 7.67005C13.2133 8.24713 14.7086 8.61922 16.4096 8.61922C18.1105 8.61922 19.6058 8.24713 20.7046 7.67005C21.8034 7.09297 22.5636 6.28848 22.5636 5.33568C22.5636 4.38287 21.8034 3.56557 20.7046 2.98841C19.4013 2.34651 17.7071 2.06253 16.4096 2.05219ZM16.4096 2.8731C17.9908 2.8731 19.3674 3.2193 20.32 3.71962C21.2725 4.21995 21.7431 4.85201 21.7431 5.33575C21.7431 5.8195 21.2725 6.43876 20.32 6.93904C19.3674 7.4394 17.9908 7.79843 16.4096 7.79843C14.8283 7.79843 13.4517 7.4394 12.4992 6.93904C11.553 6.44212 11.0823 5.83102 11.076 5.34855C11.118 4.47579 11.8937 3.94775 12.512 3.62995C13.5016 3.04069 15.2392 2.88118 16.4096 2.8731ZM16.4096 3.28352C15.5321 3.28352 14.7579 3.45883 14.1659 3.7966C13.5738 4.13433 13.146 4.67482 13.1274 5.32296C13.1472 5.98821 13.6764 6.51683 14.1531 6.8107C14.7418 7.16406 15.5206 7.38787 16.4096 7.38787C17.2985 7.38787 18.0773 7.16402 18.6661 6.8107C19.2548 6.45734 19.6917 5.95132 19.6917 5.33568C19.6917 4.71999 19.2548 4.20121 18.6661 3.84781C17.9147 3.39163 17.1023 3.28967 16.4096 3.28352ZM16.4096 4.10443C17.1617 4.10443 17.8188 4.29101 18.2558 4.55338C18.6927 4.81562 18.8712 5.13054 18.8712 5.33575C18.8712 5.54097 18.6927 5.84305 18.2558 6.10533C17.8188 6.36761 17.1617 6.56711 16.4096 6.56711C15.6574 6.56711 15.0003 6.36761 14.5633 6.10533C14.2232 5.92432 13.9663 5.63063 13.9479 5.33585C13.9613 5.03 14.1549 4.74244 14.5762 4.50215C15.0797 4.18612 15.8515 4.10877 16.4096 4.10443ZM27.9356 5.66922C28.0931 9.5924 28.8235 12.1101 29.5511 14.5964C29.5632 14.6329 29.5806 14.6675 29.6023 14.699C30.0402 15.3896 30.6912 15.8943 31.1921 16.3664C31.6931 16.8386 31.9999 17.2408 31.9999 17.6491C32.0074 18.4447 31.6856 18.906 31.0127 18.765C30.3095 18.6111 29.2554 17.9957 28.269 17.4182C27.486 14.2846 26.7284 11.1587 26.6792 5.86161C27.1797 5.89484 27.6155 5.85462 27.9356 5.66922ZM5.922 5.81032C6.30707 6.03798 6.77208 6.21204 7.13999 6.36187C6.68829 6.93095 6.2953 7.35403 5.89636 7.86251C5.95321 7.22311 5.96226 6.53297 5.922 5.81032ZM25.9484 8.46539C26.1819 12.3457 26.813 15.0155 27.4612 17.6106C27.0759 18.0139 26.5068 17.7252 26.115 17.5593C25.3355 17.2263 24.3561 16.6445 23.3329 16.8667C22.9931 13.7351 23.179 9.47869 23.179 9.47869C24.2 9.04631 25.2383 9.0005 25.9484 8.46539ZM6.19124 10.1328C6.87612 10.6996 7.93012 11.0746 9.20417 11.3642C10.7243 11.7096 12.5617 11.9029 14.4095 11.9029C16.2573 11.9029 18.1136 11.7128 19.6917 11.3129C20.644 11.0716 21.4957 10.751 22.179 10.3252C22.2731 12.8946 22.2882 15.6899 22.6534 17.9184C22.7788 18.5554 23.06 19.2151 23.4098 19.6885C24.2016 20.7804 25.3425 21.6747 25.7432 22.9207C25.8966 23.4194 25.8847 23.9039 25.5894 24.4727C25.0132 24.8497 24.4214 24.8845 23.7047 24.6651C22.9574 24.4362 22.118 23.9406 21.2687 23.344C19.57 22.1506 17.8749 20.5783 16.2172 20.3426C16.0741 20.3213 15.9215 20.3824 15.8326 20.4965C15.3128 21.1862 14.5056 21.4655 13.653 21.715C12.8178 21.9595 11.9251 22.1656 11.3965 22.9079C10.5938 23.8226 9.82116 25.1767 8.84518 26.0376C8.57235 26.2674 8.44002 26.309 8.21695 26.2428C7.71677 25.9412 7.43051 25.671 7.14001 25.3323C6.9287 25.0434 6.92043 24.8003 7.05026 24.4344C7.18252 24.0618 7.49575 23.5981 7.89645 23.1262C8.69784 22.1821 9.82267 21.1817 10.4222 20.1376C10.4477 20.0943 10.4652 20.0461 10.4735 19.9965L11.294 14.34L10.4735 14.2246C10.1362 16.1708 9.96764 18.5457 9.48625 20.0863L6.01177 20.0736C5.91364 20.0736 5.81612 20.1113 5.74252 20.1762C4.19483 21.4552 2.83253 22.2669 1.85777 22.4977C1.37038 22.6131 1.00283 22.5928 0.7167 22.4592C0.437173 22.3287 0.206976 22.0791 0.0243658 21.6383C-0.0413878 21.3462 0.0255964 21.0899 0.229503 20.7789C1.39581 19.3489 3.24659 18.4586 4.56299 17.4184C4.63649 17.357 4.68738 17.2691 4.70403 17.1747L6.19124 10.1328ZM5.25531 10.5817L4.05013 16.3792L0.88335 15.4301C2.96427 13.942 4.48194 12.5378 5.25531 10.5817Z" fill="black"/>
</svg>
