<svg width="32" height="33" viewBox="0 0 32 33" fill="none" xmlns="http://www.w3.org/2000/svg">
<path fill-rule="evenodd" clip-rule="evenodd" d="M12.3048 27.6264L12.4949 27.4356C12.7611 27.1686 13.1413 27.1686 13.4075 27.4356C13.6736 27.7027 13.6736 28.0842 13.4075 28.3513C12.9892 28.771 12.609 29.1525 12.1908 29.5721L8.84487 26.2148L3.36976 31.1745C3.40778 31.5942 3.21768 32.0902 2.87548 32.4335C2.22912 33.0821 1.16451 33.0821 0.518145 32.4335C-0.166242 31.7468 -0.166242 30.6786 0.480124 30.03C0.822318 29.6866 1.3166 29.4958 1.77286 29.5721L6.67764 24.0401L3.33174 20.6827C3.74998 20.2631 4.13019 19.8815 4.54843 19.4619C4.81458 19.1948 5.23282 19.233 5.46095 19.4619C5.7271 19.7289 5.7271 20.1104 5.46095 20.3775L5.27084 20.5683L7.6662 22.9718L27.3614 3.2091L32 0.919983L29.6427 5.49822L9.94749 25.261L12.3048 27.6264ZM1.20253 31.7468C0.898361 31.4416 0.936383 31.0219 1.20253 30.7549C1.46868 30.4878 1.88692 30.4496 2.19109 30.7549C2.45724 31.0219 2.41922 31.4416 2.15307 31.7087C1.88692 31.9757 1.46868 32.0139 1.20253 31.7468Z" fill="black"/>
</svg>
