<svg width="64" height="64" viewBox="0 0 64 64" fill="none" xmlns="http://www.w3.org/2000/svg">
<path d="M64 51.2H34.1333V64H64V51.2Z" fill="black"/>
<path d="M64 33.0667H54.4V49.0667H64V33.0667Z" fill="black"/>
<path d="M11.7333 0H0V12.8H11.7333V0Z" fill="black"/>
<path d="M44.8 0H13.8667V12.8H44.8V0Z" fill="black"/>
<path d="M64 0H46.9333V12.8H64V0Z" fill="black"/>
<path d="M64 14.9333H33.0667V30.9333H64V14.9333Z" fill="black"/>
<path d="M30.9333 14.9333H0V30.9333H30.9333V14.9333Z" fill="black"/>
<path d="M52.2667 33.0667H22.4V49.0667H52.2667V33.0667Z" fill="black"/>
<path d="M20.2667 33.0667H0V49.0667H20.2667V33.0667Z" fill="black"/>
<path d="M32 51.2H0V64H32V51.2Z" fill="black"/>
</svg>
