<svg width="22" height="32" viewBox="0 0 22 32" fill="none" xmlns="http://www.w3.org/2000/svg">
<path d="M15.1582 12.2276C14.8019 9.99412 13.6354 8.33209 11.9636 6.87423C12.3861 8.95403 13.4086 10.9697 15.1582 12.2276ZM10.6923 19.3299C9.55524 17.3749 9.40699 15.3495 9.77977 13.1633C10.7682 15.0409 11.2521 17.2486 10.6923 19.3299ZM19.0045 29.5055C17.8674 27.5505 17.7195 25.5255 18.0919 23.3389C19.112 25.2759 19.5846 27.3491 19.0045 29.5055ZM19.7203 31.7348C21.7837 26.467 20.5464 24.0919 17.4692 19.6342L17.2321 20.5269C16.6642 19.193 15.7872 17.8236 14.6786 16.2179L14.451 17.0749C13.8819 15.7719 13.0209 14.4318 11.9401 12.866L11.7051 13.7532C11.1371 12.424 10.2613 11.0592 9.15704 9.45862C8.64932 11.3499 8.26363 12.8961 8.13142 14.3055C6.83199 12.8007 4.98181 11.7446 2.32701 10.3751C2.98689 13.222 3.62175 15.3014 4.81791 16.8942C3.45276 16.7608 1.89947 16.8202 0 16.938C1.36163 18.3524 2.53667 19.4766 3.7211 20.2914C3.41795 20.307 3.10541 20.325 2.7831 20.345C4.11578 21.7289 5.26931 22.8347 6.42753 23.6448L5.52121 23.6972C6.88832 25.1171 8.06688 26.2437 9.25561 27.0588C8.95051 27.0749 8.63641 27.0937 8.31214 27.1136C12.0575 31.0029 14.1807 32.6997 19.7203 31.7348ZM16.2139 26.0892C15.13 24.2249 14.9446 22.0168 15.3014 19.9225C16.302 21.8232 16.7772 23.9914 16.2139 26.0892ZM9.02835 25.0463C11.1492 25.1156 13.2928 25.7508 14.8891 27.1715C12.7025 27.3045 10.7142 26.4252 9.02835 25.0463ZM17.6796 30.5879C15.45 30.7248 13.5149 29.849 11.8197 28.4627C14.0352 28.5335 15.9918 29.0847 17.6796 30.5879ZM13.4754 22.7369C12.334 20.7749 12.1963 18.7248 12.5629 16.5703C13.5216 18.3911 14.0203 20.7084 13.4754 22.7369ZM6.29063 21.6945C8.50654 21.7653 10.4627 22.316 12.1506 23.8193C10.0368 23.9468 7.89868 23.0103 6.29063 21.6945ZM3.50714 18.2875C5.67963 18.3563 7.7344 18.9579 9.36749 20.4119C7.19812 20.5453 5.17113 19.6483 3.50714 18.2875ZM8.51554 18.018C6.41071 16.8089 5.4954 15.6835 4.64032 13.3264C6.52219 14.5327 7.79542 15.8834 8.51554 18.018ZM10.2675 9.76725C10.2053 9.21298 10.1525 8.62898 10.1025 8.01094L10.8461 8.54918C10.4447 7.16056 10.2593 5.54938 10.1025 3.61157C11.6921 4.75493 12.9689 5.7078 13.9632 6.71581C14.0172 4.72873 14.7819 2.74046 15.9718 0C17.2615 2.62272 18.0856 4.63446 18.167 6.62507C19.1398 5.65773 20.3802 4.72129 21.926 3.61079C21.7657 5.56776 21.5677 7.18169 21.1656 8.5617C21.4105 8.38215 21.6636 8.19831 21.926 8.01016C21.7692 9.92489 21.5756 11.511 21.1907 12.8711L21.926 12.3383C21.7653 14.3031 21.5654 15.9214 21.1606 17.3045C21.407 17.1234 21.662 16.9395 21.926 16.7498C21.6984 19.5271 21.4367 21.5783 20.5632 23.292C20.3031 22.7314 19.9922 22.1643 19.6342 21.574C19.813 21.0725 19.9538 20.5511 20.0633 20.0133C19.7516 20.2851 19.4578 20.5648 19.1828 20.8527C18.9157 20.4385 18.6278 20.0105 18.3211 19.5623C19.2122 18.433 19.7668 17.0632 20.0633 15.6022C19.0929 16.449 18.248 17.4625 17.6589 18.6L17.1649 17.885L17.0127 18.4565C16.2949 17.2431 15.497 16.0946 14.697 14.9368C14.1279 13.5024 13.1684 12.3246 11.9636 11.274C11.9961 11.432 12.0321 11.5908 12.0724 11.7493L11.635 11.116L11.484 11.6847C11.096 11.0303 10.6935 10.3986 10.2675 9.76725ZM20.0633 11.274C18.3919 12.7307 17.2255 14.3951 16.8691 16.627C18.5867 15.3886 19.6503 13.3104 20.0633 11.274ZM20.0633 6.87423C18.4244 8.30236 17.2138 10.0681 16.8691 12.2276C18.6333 10.9583 19.6354 8.98102 20.0633 6.87423ZM16.0141 9.83453C16.8793 7.5662 16.8766 6.11539 16.0469 3.74926C15.353 5.87404 15.2216 7.72579 16.0141 9.83453Z" fill="black"/>
</svg>
