<svg width="32" height="20" viewBox="0 0 32 20" fill="none" xmlns="http://www.w3.org/2000/svg">
<path d="M11.7472 10.6784C10.756 10.6784 10.1236 10.6784 10.1236 10.6784C8.53415 10.673 7.11598 10.0085 6.08071 8.96332C5.34398 8.96332 4.89889 8.96332 4.89889 8.96332C2.19345 8.96332 0 11.1459 0 13.8403C0 16.5331 2.19345 18.7158 4.89889 18.7172C5.09162 18.7172 7.9367 18.3645 11.1323 17.9611C10.4865 17.0329 10.1054 15.9095 10.1054 14.6942C10.1054 13.1312 10.7327 11.7163 11.7472 10.6784ZM4.90944 17.8086C2.69926 17.8053 0.913088 16.0254 0.909088 13.8243C0.913088 11.6247 2.69926 9.8455 4.90944 9.84151C7.11889 9.8455 8.90579 11.6247 8.90906 13.8243C8.90579 16.0254 7.11889 17.8053 4.90944 17.8086ZM4.90907 10.5658C3.10108 10.5658 1.63636 12.0249 1.63636 13.8254C1.63636 15.6256 3.10108 17.0843 4.90907 17.0843C6.71707 17.0843 8.18179 15.6256 8.18179 13.8254C8.18179 12.0249 6.71707 10.5658 4.90907 10.5658ZM4.90907 16.179C3.60362 16.1753 2.54908 15.1248 2.54545 13.8254C2.54908 12.525 3.60399 11.4737 4.90907 11.4711C6.21416 11.4737 7.26979 12.525 7.2727 13.8254C7.26979 15.1248 6.21416 16.1753 4.90907 16.179ZM4.90907 12.467C4.15599 12.467 3.54544 13.0751 3.54544 13.8251C3.54544 14.5743 4.15562 15.1831 4.90907 15.1831C5.66253 15.1831 6.27271 14.5743 6.27271 13.8251C6.27271 13.0747 5.66216 12.467 4.90907 12.467Z" fill="black"/>
<path d="M24.2752 2.23658C24.2752 2.23658 10.5723 0.00072428 10.124 0C7.43816 0.00108642 5.26035 2.16741 5.26035 4.84181C5.26035 7.51621 7.43816 9.78393 10.124 9.78393C10.124 9.78393 11.2603 9.78393 12.876 9.78393C13.7552 9.2476 14.8021 8.92675 15.909 8.92639H26.1395C26.8443 8.26258 27.2261 7.27394 27.2279 6.14986C27.2428 4.11463 26.1523 2.49116 24.2752 2.23658ZM10.1058 8.87569C7.89561 8.87279 6.10943 7.09251 6.10507 4.89179C6.10943 2.69179 7.89561 0.912593 10.1058 0.908609C12.3152 0.912593 14.1018 2.69179 14.105 4.89142C14.1018 7.09215 12.3152 8.87243 10.1058 8.87569ZM10.1054 1.63289C8.29743 1.63289 6.8327 3.09267 6.8327 4.89251C6.8327 6.69271 8.29743 8.15141 10.1054 8.15141C11.9134 8.15141 13.3781 6.69307 13.3781 4.89251C13.3781 3.09267 11.9131 1.63289 10.1054 1.63289ZM10.1054 7.24606C8.79997 7.24316 7.74506 6.19151 7.74179 4.89251C7.74506 3.59243 8.8007 2.54041 10.1054 2.53824C11.4101 2.54077 12.4661 3.59279 12.469 4.89251C12.4658 6.19151 11.4101 7.24316 10.1054 7.24606ZM10.1054 3.53412C9.35233 3.53412 8.74179 4.14216 8.74179 4.89215C8.74179 5.64178 9.35233 6.25017 10.1054 6.25017C10.8585 6.25017 11.4691 5.64178 11.4691 4.89215C11.4687 4.14216 10.8585 3.53412 10.1054 3.53412Z" fill="black"/>
<path d="M28.4064 9.83246C28.3955 9.83246 15.8927 9.83355 15.8927 9.83355C13.1956 9.83355 11.0094 12.0089 11.0094 14.6938C11.0094 17.3791 13.1192 19.4954 15.8927 19.5556L28.7719 17.5989C30.629 17.043 32.0141 15.7295 31.9999 13.6849C31.9959 11.6551 30.5508 9.83862 28.4064 9.83246ZM16.0003 18.6469C13.7901 18.6437 12.0043 16.8634 12 14.6627C12.0043 12.4634 13.7901 10.6839 16.0003 10.6799C18.2098 10.6839 19.9963 12.4634 19.9999 14.6627C19.9963 16.8634 18.2098 18.6437 16.0003 18.6469ZM15.9999 11.4041C14.192 11.4041 12.7272 12.8636 12.7272 14.6638C12.7272 16.4643 14.192 17.9227 15.9999 17.9227C17.8076 17.9227 19.2727 16.4643 19.2727 14.6638C19.2727 12.8636 17.8076 11.4041 15.9999 11.4041ZM15.9999 17.0173C14.6945 17.0141 13.6396 15.9628 13.6363 14.6638C13.6396 13.3637 14.6952 12.3124 15.9999 12.3095C17.305 12.3124 18.3603 13.3637 18.3636 14.6638C18.3603 15.9628 17.305 17.0141 15.9999 17.0173ZM15.9999 13.3054C15.2469 13.3054 14.6363 13.9134 14.6363 14.6634C14.6363 15.4127 15.2469 16.0214 15.9999 16.0214C16.753 16.0214 17.3636 15.4127 17.3636 14.6634C17.3636 13.9134 16.753 13.3054 15.9999 13.3054Z" fill="black"/>
</svg>
